<?xml version="1.0" encoding="UTF-8" standalone="no"?>
<!-- Created with Inkscape (http://www.inkscape.org/) -->

<svg
   width="2245.3599mm"
   height="2270.0164mm"
   viewBox="0 0 2245.3599 2270.0163"
   version="1.1"
   id="svg5"
   xml:space="preserve"
   inkscape:version="1.2.2 (b0a8486541, 2022-12-01)"
   sodipodi:docname="Bitcoin-Dresden.svg"
   xmlns:inkscape="http://www.inkscape.org/namespaces/inkscape"
   xmlns:sodipodi="http://sodipodi.sourceforge.net/DTD/sodipodi-0.dtd"
   xmlns="http://www.w3.org/2000/svg"
   xmlns:svg="http://www.w3.org/2000/svg"><sodipodi:namedview
     id="namedview7"
     pagecolor="#ffffff"
     bordercolor="#666666"
     borderopacity="1.0"
     inkscape:showpageshadow="2"
     inkscape:pageopacity="0.0"
     inkscape:pagecheckerboard="0"
     inkscape:deskcolor="#d1d1d1"
     inkscape:document-units="mm"
     showgrid="false"
     inkscape:zoom="0.053498213"
     inkscape:cx="93.461066"
     inkscape:cy="4654.3611"
     inkscape:window-width="1920"
     inkscape:window-height="1003"
     inkscape:window-x="0"
     inkscape:window-y="0"
     inkscape:window-maximized="1"
     inkscape:current-layer="layer1" /><defs
     id="defs2">
  
  
 
   
   
  
  
  
 
   
   
  </defs><g
     inkscape:label="Ebene 1"
     inkscape:groupmode="layer"
     id="layer1"
     transform="translate(-823.5594,388.69061)"><path
       id="path7757"
       style="clip-rule:evenodd;fill:#000000;stroke-width:0.264583;image-rendering:optimizeQuality;shape-rendering:geometricPrecision;text-rendering:geometricPrecision"
       d="m 2512.6469,776.55208 c -85.8029,0.60518 -171.3982,21.58349 -247.6954,60.82999 -68.8807,35.28397 -130.3199,85.11421 -178.775,145.49082 -35.5061,44.10411 -64.1274,93.73741 -84.4878,146.57001 -31.4924,81.5335 -43.6232,170.578 -34.3739,257.5371 8.4728,80.3333 34.9053,158.7043 76.7701,227.7786 37.1184,61.3833 86.2114,115.5555 143.9307,158.1846 44.1713,32.7345 93.292,58.7753 145.1784,76.9512 75.237,26.4097 156.2107,36.5819 235.6218,28.9749 82.1984,-7.7913 162.5412,-34.3828 233.1673,-77.131 58.2267,-35.1563 109.9977,-81.0579 151.5497,-134.9305 34.9175,-45.075 62.7148,-95.6441 82.1101,-149.2583 28.9489,-79.9328 39.477,-166.5886 29.7434,-251.0898 -8.7115,-76.3473 -33.5761,-150.8048 -72.5615,-217.0231 -34.1831,-58.25179 -79.0702,-110.25678 -131.9102,-152.35415 -45.7885,-36.54249 -97.445,-65.72633 -152.4118,-85.99378 -62.5187,-23.09366 -129.1981,-34.90169 -195.8559,-34.53659 z" /><path
       fill="#f7931a"
       fill-rule="nonzero"
       d="m 3041.6524,1459.8795 c -72.2948,289.986 -366.0034,466.4657 -656.0238,394.1525 -289.8986,-72.2948 -466.3784,-366.022 -394.0519,-655.9841 72.263,-290.01776 365.9717,-466.51072 655.9021,-394.21597 289.9992,72.29475 466.4683,366.05367 394.1656,656.05287 l 0.01,-0.01 z"
       id="path7686"
       style="clip-rule:evenodd;fill:#ffffff;stroke-width:0.264583;image-rendering:optimizeQuality;shape-rendering:geometricPrecision;text-rendering:geometricPrecision" /><path
       id="path7688"
       style="clip-rule:evenodd;fill:#f7931a;fill-opacity:1;stroke-width:0.264583;image-rendering:optimizeQuality;shape-rendering:geometricPrecision;text-rendering:geometricPrecision"
       d="M 2609.8546,795.86809 V 1862.1146 c 46.2282,-8.1144 90.9063,-22.1958 133.0001,-41.6046 V 837.27745 c -30.1585,-13.84131 -62.0047,-25.12627 -95.3761,-33.44551 -12.5405,-3.12702 -25.0875,-5.75679 -37.624,-7.96385 z m 230.9802,99.6456 v 866.67841 c 52.123,-38.963 97.4212,-87.4104 133.0001,-143.599 v -579.0525 c -34.95,-55.24912 -79.8776,-104.24117 -133.0001,-144.02691 z" /><path
       fill="#ffffff"
       fill-rule="nonzero"
       d="m 2568.3722,1261.7583 c 10.7739,-72.0354 -44.069,-110.7572 -119.0625,-136.5885 l 24.3285,-97.5783 -59.399,-14.8008 -23.6828,95.0092 c -15.6157,-3.8947 -31.6521,-7.5644 -47.5906,-11.2024 l 23.8548,-95.6363 -59.3619,-14.80082 -24.3417,97.54662 c -12.9222,-2.9422 -25.6143,-5.85 -37.928,-8.9139 l 0.069,-0.3069 -81.9124,-20.4549 -15.8008,63.4418 c 0,0 44.0689,10.1018 43.1402,10.7235 24.0533,6.0034 28.4031,21.9261 27.6807,34.5467 l -27.7126,111.1647 c 1.6563,0.4207 3.8047,1.0292 6.1754,1.9817 -1.9818,-0.4921 -4.0905,-1.0292 -6.2786,-1.5531 l -38.8434,155.7258 c -2.9396,7.3078 -10.4008,18.2748 -27.2177,14.1102 0.5953,0.8626 -43.1721,-10.7738 -43.1721,-10.7738 l -29.4904,67.9926 77.298,19.2696 c 14.3801,3.6063 28.4717,7.3793 42.3491,10.9273 l -24.5797,98.6976 59.3301,14.8008 24.3417,-97.6498 c 16.2084,4.4 31.9378,8.4587 47.3366,12.2846 l -24.2597,97.1894 59.4016,14.8008 24.5772,-98.5123 c 101.2878,19.169 177.4481,11.4405 209.505,-80.1741 25.8313,-73.7605 -1.2859,-116.3055 -54.573,-144.0497 38.8118,-8.9509 68.0456,-34.4779 75.8402,-87.2094 l -0.018,-0.013 z m -135.7127,190.3042 c -18.3568,73.7606 -142.5469,33.8878 -182.8112,23.8892 l 32.6178,-130.757 c 40.2617,10.0515 169.3783,29.9429 150.1961,106.8678 z m 18.37,-191.3731 c -16.7454,67.093 -120.1102,33.0068 -153.6409,24.6486 l 29.5725,-118.5889 c 33.5307,8.3582 141.5124,23.958 124.0737,93.9403 z"
       id="path7690"
       style="clip-rule:evenodd;fill:#f7931a;fill-opacity:1;stroke-width:0.264583;image-rendering:optimizeQuality;shape-rendering:geometricPrecision;text-rendering:geometricPrecision" /><path
       fill="#f7931a"
       fill-rule="nonzero"
       d="M 1889.8463,294.64484 C 1817.5515,584.63081 1523.8429,761.11054 1233.8225,688.79727 943.92382,616.50252 767.44409,322.77534 839.77059,32.813174 c 72.263,-290.017724 365.97171,-466.510684 655.90211,-394.215934 289.9992,72.29475 466.4683,366.0536844 394.1656,656.05289 l 0.01,-0.005 z"
       id="path6698"
       style="clip-rule:evenodd;stroke-width:0.264583;image-rendering:optimizeQuality;shape-rendering:geometricPrecision;text-rendering:geometricPrecision" /><path
       id="path7608"
       style="clip-rule:evenodd;stroke-width:0.264583;image-rendering:optimizeQuality;shape-rendering:geometricPrecision;text-rendering:geometricPrecision"
       d="M 1458.0485,-369.3666 V 696.87994 c 46.2282,-8.11449 90.9063,-22.19587 133.0001,-41.60469 v -983.23249 c -30.1585,-13.84131 -62.0047,-25.12627 -95.3761,-33.44551 -12.5405,-3.12702 -25.0875,-5.75679 -37.624,-7.96385 z m 230.9802,99.6456 v 866.67836 c 52.123,-38.96299 97.4212,-87.41038 133.0001,-143.59899 v -579.05251 c -34.95,-55.24906 -79.8776,-104.24112 -133.0001,-144.02686 z" /><path
       fill="#ffffff"
       fill-rule="nonzero"
       d="m 1416.5661,96.523596 c 10.7739,-72.03545 -44.069,-110.75723 -119.0625,-136.5885 l 24.3285,-97.578326 -59.399,-14.80079 -23.6828,95.009226 c -15.6157,-3.89467 -31.6521,-7.56444 -47.5906,-11.20246 l 23.8548,-95.636286 -59.3619,-14.80079 -24.3417,97.546576 c -12.9222,-2.94217 -25.6143,-5.84994 -37.928,-8.91381 l 0.069,-0.30692 -81.9124,-20.454936 -15.80087,63.441796 c 0,0 44.06897,10.10179 43.14027,10.72356 24.0533,6.00339 28.4031,21.92602 27.6807,34.5466403 L 1038.847,108.67327 c 1.6563,0.42069 3.8047,1.02923 6.1754,1.98173 -1.9818,-0.49213 -4.0905,-1.02923 -6.2786,-1.55311 L 999.90032,264.8277 c -2.93952,7.3078 -10.40077,18.27478 -27.21768,14.11023 0.59531,0.86255 -43.17206,-10.77383 -43.17206,-10.77383 l -29.49046,67.99258 77.29802,19.2696 c 14.3801,3.6063 28.47176,7.3793 42.34916,10.9273 l -24.57975,98.6976 59.33015,14.8008 24.3417,-97.6498 c 16.2084,4.4 31.9378,8.4587 47.3366,12.2846 l -24.2597,97.1894 59.4016,14.8008 24.5772,-98.5123 c 101.2878,19.169 177.4481,11.4405 209.505,-80.1741 25.8313,-73.76052 -1.2859,-116.30552 -54.573,-144.04973 38.8118,-8.95085 68.0456,-34.47785 75.8402,-87.209314 l -0.018,-0.0132 z M 1280.8534,286.82781 c -18.3568,73.76057 -142.5469,33.88783 -182.8112,23.88923 L 1130.66,179.95996 c 40.2617,10.05152 169.3783,29.94289 150.1961,106.86785 z m 18.37,-191.373124 C 1282.478,162.54773 1179.1132,128.46146 1145.5825,120.10327 L 1175.155,1.5143663 c 33.5307,8.35819 141.5124,23.9580297 124.0737,93.9403197 z"
       id="path7616"
       style="clip-rule:evenodd;fill:#000000;stroke-width:0.264583;image-rendering:optimizeQuality;shape-rendering:geometricPrecision;text-rendering:geometricPrecision" /><path
       fill="#f7931a"
       fill-rule="nonzero"
       d="m 1889.8463,1459.8772 c -72.2948,289.986 -366.0034,466.4657 -656.0238,394.1525 -289.89866,-72.2948 -466.37839,-366.022 -394.05189,-655.9841 72.263,-290.01567 365.97169,-466.50863 655.90209,-394.21388 289.9992,72.29475 466.4683,366.05158 394.1656,656.05078 l 0.01,-0.01 z"
       id="path7634"
       style="clip-rule:evenodd;fill:#000000;stroke-width:0.264583;image-rendering:optimizeQuality;shape-rendering:geometricPrecision;text-rendering:geometricPrecision" /><path
       id="path7636"
       style="clip-rule:evenodd;fill:#f7931a;fill-opacity:1;stroke-width:0.264583;image-rendering:optimizeQuality;shape-rendering:geometricPrecision;text-rendering:geometricPrecision"
       d="M 1458.0485,795.86788 V 1862.1123 c 46.2282,-8.1144 90.9063,-22.1958 133.0001,-41.6046 V 837.27724 c -30.1585,-13.84131 -62.0047,-25.12627 -95.3761,-33.44551 -12.5405,-3.12702 -25.0875,-5.75679 -37.624,-7.96385 z m 230.9802,99.6456 v 866.67632 c 52.123,-38.963 97.4212,-87.4104 133.0001,-143.599 v -579.0525 c -34.95,-55.2482 -79.8776,-104.23908 -133.0001,-144.02482 z" /><path
       fill="#ffffff"
       fill-rule="nonzero"
       d="m 1416.5661,1261.756 c 10.7739,-72.0354 -44.069,-110.7572 -119.0625,-136.5885 l 24.3285,-97.5783 -59.399,-14.8008 -23.6828,95.0092 c -15.6157,-3.8947 -31.6521,-7.5644 -47.5906,-11.2024 l 23.8548,-95.6363 -59.3619,-14.79999 -24.3417,97.54579 c -12.9222,-2.9422 -25.6143,-5.85 -37.928,-8.9139 l 0.069,-0.3069 -81.9124,-20.4549 -15.80082,63.4418 c 0,0 44.06892,10.1018 43.14022,10.7235 24.0533,6.0034 28.4031,21.9261 27.6807,34.5467 l -27.7126,111.1647 c 1.6563,0.4207 3.8047,1.0292 6.1754,1.9817 -1.9818,-0.4921 -4.0905,-1.0292 -6.2786,-1.5531 l -38.84342,155.7258 c -2.9396,7.3078 -10.40081,18.2748 -27.21772,14.1102 0.59531,0.8626 -43.17206,-10.7738 -43.17206,-10.7738 l -29.49046,67.9926 77.29802,19.2696 c 14.3801,3.6063 28.47174,7.3793 42.34914,10.9273 l -24.57972,98.6976 59.33012,14.8008 24.3417,-97.6498 c 16.2084,4.4 31.9378,8.4587 47.3366,12.2846 l -24.2597,97.1894 59.4016,14.8008 24.5772,-98.5123 c 101.2878,19.169 177.4481,11.4405 209.505,-80.1741 25.8313,-73.7605 -1.2859,-116.3055 -54.573,-144.0497 38.8118,-8.9509 68.0456,-34.4779 75.8402,-87.2094 l -0.018,-0.013 z m -135.7127,190.3042 c -18.3568,73.7606 -142.5469,33.8878 -182.8112,23.8892 l 32.6178,-130.757 c 40.2617,10.0515 169.3783,29.9429 150.1961,106.8678 z m 18.37,-191.3731 c -16.7454,67.093 -120.1102,33.0068 -153.6409,24.6486 l 29.5725,-118.5889 c 33.5307,8.3582 141.5124,23.958 124.0737,93.9403 z"
       id="path7638"
       style="clip-rule:evenodd;fill:#f7931a;fill-opacity:1;stroke-width:0.264583;image-rendering:optimizeQuality;shape-rendering:geometricPrecision;text-rendering:geometricPrecision" /><path
       id="path7780"
       style="clip-rule:evenodd;fill:#000000;stroke-width:0.264583;image-rendering:optimizeQuality;shape-rendering:geometricPrecision;text-rendering:geometricPrecision"
       d="m 2512.647,-388.68239 c -85.8029,0.60518 -171.3982,21.58349 -247.6954,60.82999 -68.8807,35.28397 -130.3199,85.11421 -178.775,145.49191 -35.5061,44.1051 -64.1274,93.738395 -84.4878,146.570995 -31.4924,81.5335 -43.6232,170.578005 -34.3739,257.537105 8.4728,80.3333 34.9053,158.7043 76.7701,227.7786 37.1184,61.3833 86.2114,115.5555 143.9307,158.1846 44.1713,32.7345 93.292,58.7753 145.1784,76.9512 75.237,26.4097 156.2107,36.5819 235.6218,28.9749 82.1984,-7.7913 162.5412,-34.3828 233.1673,-77.131 58.2267,-35.1563 109.9977,-81.0579 151.5497,-134.9305 34.9175,-45.075 62.7148,-95.6441 82.1101,-149.2583 28.9489,-79.9328 39.477,-166.5886 29.7434,-251.0898 -8.7115,-76.347305 -33.5761,-150.804805 -72.5615,-217.0231 -34.1831,-58.2523 -79.0702,-110.25886 -131.9102,-152.35623 -45.7885,-36.54249 -97.445,-65.72633 -152.4118,-85.99378 -62.5187,-23.09366 -129.1981,-34.90169 -195.8559,-34.53659 z" /><path
       fill="#f7931a"
       fill-rule="nonzero"
       d="M 3041.6525,294.64484 C 2969.3577,584.63081 2675.6491,761.11054 2385.6287,688.79727 2095.73,616.50252 1919.2503,322.77534 1991.5768,32.813174 c 72.263,-290.017724 365.9717,-466.510684 655.9021,-394.215934 289.9992,72.29475 466.4683,366.0536844 394.1656,656.05289 l 0.01,-0.005 z"
       id="path7678"
       style="clip-rule:evenodd;stroke-width:0.264583;image-rendering:optimizeQuality;shape-rendering:geometricPrecision;text-rendering:geometricPrecision" /><path
       id="path7680"
       style="clip-rule:evenodd;fill:#ffffff;stroke-width:0.264583;image-rendering:optimizeQuality;shape-rendering:geometricPrecision;text-rendering:geometricPrecision"
       d="M 2609.8547,-369.3666 V 696.87994 c 46.2282,-8.11449 90.9063,-22.19587 133.0001,-41.60469 v -983.23249 c -30.1585,-13.84131 -62.0047,-25.12627 -95.3761,-33.44551 -12.5405,-3.12702 -25.0875,-5.75679 -37.624,-7.96385 z m 230.9802,99.6456 v 866.67836 c 52.123,-38.96299 97.4212,-87.41038 133.0001,-143.59899 v -579.05251 c -34.95,-55.24906 -79.8776,-104.24112 -133.0001,-144.02686 z" /><path
       fill="#ffffff"
       fill-rule="nonzero"
       d="m 2568.3723,96.523596 c 10.7739,-72.03545 -44.069,-110.75723 -119.0625,-136.5885 l 24.3285,-97.578326 -59.399,-14.80079 -23.6828,95.009226 c -15.6157,-3.89467 -31.6521,-7.56444 -47.5906,-11.20246 l 23.8548,-95.636286 -59.3619,-14.80079 -24.3417,97.546576 c -12.9222,-2.94217 -25.6143,-5.84994 -37.928,-8.91381 l 0.069,-0.30692 -81.9124,-20.454936 -15.8009,63.441796 c 0,0 44.069,10.10179 43.1403,10.72356 24.0533,6.00339 28.4031,21.92602 27.6807,34.5466403 L 2190.6532,108.67327 c 1.6563,0.42069 3.8047,1.02923 6.1754,1.98173 -1.9818,-0.49213 -4.0905,-1.02923 -6.2786,-1.55311 l -38.8435,155.72581 c -2.9395,7.3078 -10.4007,18.27478 -27.2177,14.11023 0.5954,0.86255 -43.172,-10.77383 -43.172,-10.77383 l -29.4905,67.99258 77.298,19.2696 c 14.3801,3.6063 28.4718,7.3793 42.3492,10.9273 l -24.5797,98.6976 59.3301,14.8008 24.3417,-97.6498 c 16.2084,4.4 31.9378,8.4587 47.3366,12.2846 l -24.2597,97.1894 59.4016,14.8008 24.5772,-98.5123 c 101.2878,19.169 177.4481,11.4405 209.505,-80.1741 25.8313,-73.76052 -1.2859,-116.30552 -54.573,-144.04973 38.8118,-8.95085 68.0456,-34.47785 75.8402,-87.209314 l -0.018,-0.0132 z M 2432.6596,286.82781 c -18.3568,73.76057 -142.5469,33.88783 -182.8112,23.88923 l 32.6178,-130.75708 c 40.2617,10.05152 169.3783,29.94289 150.1961,106.86785 z m 18.37,-191.373124 c -16.7454,67.093044 -120.1102,33.006774 -153.6409,24.648584 L 2326.9612,1.5143663 c 33.5307,8.35819 141.5124,23.9580297 124.0737,93.9403197 z"
       id="path7682"
       style="clip-rule:evenodd;fill:#ffffff;stroke-width:0.264583;image-rendering:optimizeQuality;shape-rendering:geometricPrecision;text-rendering:geometricPrecision" /></g></svg>
