<?xml version="1.0" encoding="UTF-8" standalone="no"?>
<svg
   width="500px"
   height="500px"
   viewBox="0 0 500 500"
   version="1.1"
   id="svg49"
   sodipodi:docname="finanzpolitische-sourveränität.svg"
   xml:space="preserve"
   inkscape:version="1.2.2 (b0a8486541, 2022-12-01)"
   xmlns:inkscape="http://www.inkscape.org/namespaces/inkscape"
   xmlns:sodipodi="http://sodipodi.sourceforge.net/DTD/sodipodi-0.dtd"
   xmlns:xlink="http://www.w3.org/1999/xlink"
   xmlns="http://www.w3.org/2000/svg"
   xmlns:svg="http://www.w3.org/2000/svg"
   xmlns:rdf="http://www.w3.org/1999/02/22-rdf-syntax-ns#"
   xmlns:cc="http://creativecommons.org/ns#"
   xmlns:dc="http://purl.org/dc/elements/1.1/"><defs
     id="defs53" /><sodipodi:namedview
     id="namedview51"
     pagecolor="#ffffff"
     bordercolor="#666666"
     borderopacity="1.0"
     inkscape:showpageshadow="2"
     inkscape:pageopacity="0.0"
     inkscape:pagecheckerboard="0"
     inkscape:deskcolor="#d1d1d1"
     showgrid="false"
     inkscape:zoom="1.674"
     inkscape:cx="189.96416"
     inkscape:cy="253.28554"
     inkscape:window-width="1920"
     inkscape:window-height="1003"
     inkscape:window-x="0"
     inkscape:window-y="0"
     inkscape:window-maximized="1"
     inkscape:current-layer="layer3" /><!-- Generator: Sketch 52.5 (67469) - http://www.bohemiancoding.com/sketch --><title
     id="title2">Politische Aktion</title><desc
     id="desc4">Created with Sketch.</desc><g
     inkscape:groupmode="layer"
     id="layer1"
     inkscape:label="orig"
     style="display:none"><g
       id="g416"
       stroke="none"
       stroke-width="1"
       fill="none"
       fill-rule="evenodd"><g
         id="g414"><g
           id="g364"
           transform="translate(26,26)"
           fill="#ffffff"><path
             d="M 224,448 C 100.288,448 0,347.712 0,224 0,100.288 100.288,0 224,0 347.712,0 448,100.288 448,224 448,347.712 347.712,448 224,448 Z"
             id="path362" /></g><g
           id="g412"><g
             id="g372"
             transform="translate(63,116)"><path
               d="m 264.458,305.123 91.52,-253.28 -7.408,-4.358 C 326.342,27.437 316.752,14.797 293.216,5.644 257.013,-8.437 226.968,19.154 196.022,27.437 148.473,40.161 104.705,36.834 64.607,10.248 60.299,7.391 58.818,4.585 55.454,0.658 27.124,32.042 5.237,72.438 1.013,119.139 c -0.123,1.364 0.213,2.134 0.436,3.485 9.589,7.845 78.644,72.665 174.967,38.233 38.956,-13.925 64.941,1.742 98.503,22.664 5.46,3.405 5.126,3.35 8.28,5.665 l -41.406,125.525 10.897,-3.05 11.768,-6.538"
               id="path366"
               fill="#231f20" /><path
               d="m 234.385,170.88 -54.612,150.849 c -2.697,0.111 -4.23,0.13 -6.917,-0.116 -4.791,-0.439 -7.514,-1.035 -12.058,-2.615 l 27.822,-82.304 -4.359,-3.051 C 168.135,227.542 160.852,222.347 139.369,226.234 93.605,234.515 33.768,213.128 11.388,166.334 6.594,156.309 3.93,151.704 2.32,141.533 1.659,137.344 1.445,134.934 1.4489451,130.693 45.461,167.131 89.966,185.575 150.701,175.24 c 28.538,-4.856 46.732,-19.781 73.658,-9.153 4.032,1.593 6.268,2.634 10.026,4.793"
               id="path368"
               fill="#ed1c24" /><path
               d="m 274.55708,168.12985 c -5.94601,-1.61967 -10.2948,-6.07849 -13.42949,-13.77267 -2.33607,-5.73306 -3.25522,-10.34818 -4.31547,-21.65899 -0.94658,-10.10129 -1.28366,-12.07137 -3.01514,-17.64714 l -1.5061,-4.84706 -1.11904,-1.03831 c -0.61538,-0.57241 -1.18176,-1.00943 -1.25819,-0.9716 -0.2391,0.11448 -2.02545,4.80924 -3.01906,7.9331 -2.1646,6.81317 -2.62417,12.94741 -1.35422,18.06027 l 0.49191,1.97805 -1.19842,0.72372 c -2.41348,1.45741 -2.48306,1.46139 -3.32675,0.18019 -1.12786,-1.71126 -2.48992,-6.49561 -2.50657,-8.80316 -0.0235,-3.12984 0.72806,-7.78577 2.15969,-13.38842 1.58939,-6.21885 2.38899,-10.97234 2.32039,-13.79158 -0.0549,-2.308557 0.006,-2.38322 3.01221,-3.684332 l 2.0862,-0.901918 1.43555,1.711256 c 3.4169,4.073564 5.21011,7.151634 7.24732,12.443684 2.32823,6.04465 3.54625,11.74087 5.55601,25.97446 1.74324,12.33617 1.68053,12.06241 3.54821,15.43515 3.22582,5.82464 5.98521,8.88778 9.94302,11.03506 0.95344,0.51866 1.00733,0.60526 1.35128,2.19407 0.19794,0.90889 0.34982,1.94022 0.33904,2.29064 -0.0294,1.00445 -1.12002,1.17667 -3.44238,0.54553 z m -30.10913,-17.89479 -1.14269,0.26494 -0.21325,-0.99211 c -0.32792,-1.52292 0.22733,-3.05524 1.55913,-4.30289 1.03305,-0.96674 1.57723,-1.24202 5.08879,-2.57892 2.16266,-0.823 4.35751,-1.63848 4.87856,-1.81135 l 0.94755,-0.31473 0.82684,2.24446 c 0.97773,2.65313 1.56919,2.05186 -4.75584,4.83652 -4.44804,1.95885 -4.89164,2.12233 -7.18909,2.65408 z m 20.69455,-10.31828 c -0.48456,-0.75184 -0.78079,-2.48067 -0.61698,-3.60843 0.1952,-1.34994 1.26928,-3.64017 2.78377,-5.94132 1.5606,-2.37256 2.75042,-4.91968 2.95543,-6.33409 0.4414,-3.04307 -1.57335,-11.90049 -3.67148,-16.13876 -2.85832,-5.77269 -8.24832,-11.430335 -13.80605,-14.491253 -0.93675,-0.515774 -1.73912,-1.047417 -1.78522,-1.183304 -0.0461,-0.134894 0.72389,-1.7695 1.71165,-3.632236 1.26633,-2.386445 1.8686,-3.287065 2.04222,-3.050999 0.68074,0.926408 7.45478,7.271416 8.83293,8.273207 2.97995,2.167241 6.33656,3.283097 9.18115,3.051991 0.66308,-0.05257 1.68124,-0.08034 2.26095,-0.05951 1.52823,0.05455 3.35465,-0.66753 6.2218,-2.459843 4.2914,-2.683015 5.87652,-2.896267 7.70098,-1.040474 1.51253,1.539386 1.44681,1.926216 -0.60129,3.519163 -3.59202,2.791129 -8.92317,4.714368 -14.71828,5.308498 -1.7862,0.1825 -2.40907,0.33624 -2.55032,0.62984 -0.21285,0.44039 0.5032,2.60069 1.99808,6.02959 0.83866,1.92423 1.07604,2.80501 1.4321,5.32338 1.08487,7.65329 0.21285,13.83563 -2.74551,19.48335 -1.16727,2.22774 -1.64692,2.87543 -2.66509,3.59851 -0.68368,0.48502 -1.76953,1.4273 -2.41397,2.09384 L 265.51818,140.5 Z m -28.71985,-38.41871 c -0.41005,0.0168 -1.22133,-0.0782 -1.8001,-0.2099 -0.86425,-0.19704 -1.10459,-0.3901 -1.33807,-1.07229 L 233,99.382217 234.61274,98.63667 c 4.02791,-1.859414 6.91985,-4.418831 9.32129,-8.247559 2.56233,-4.085166 4.22117,-9.265385 6.27339,-19.59315 0.6602,-3.323776 1.1605,-5.174279 1.42537,-5.272299 0.49539,-0.183169 2.0787,0.733666 2.56527,1.488125 0.78478,1.214856 1.07025,8.280232 0.50815,12.57827 -1.08399,8.302014 -5.31693,15.166399 -12.00233,19.463446 -1.85994,1.195057 -4.9314,2.392087 -6.28123,2.444567 z M 110.72087,140.6352 70.368232,154.5 69.359045,154.19935 c -1.269876,-0.3793 -3.914299,-3.02643 -5.553486,-5.55906 -2.828091,-4.3694 -5.309583,-9.36499 -8.139649,-16.39446 -1.063497,-2.64115 -3.399832,-8.33262 -5.192075,-12.64826 -3.558813,-8.56856 -5.39253,-14.06888 -7.501749,-22.509019 C 39.787521,84.349698 39.148633,76.268949 41.120595,73.702462 41.662711,72.996629 48.854397,69.996089 72.339206,60.676896 94.429718,51.912215 118.93359,44.307331 133.2982,41.758764 c 3.23986,-0.573428 3.95281,-0.3345 6.45602,2.168273 2.53186,2.529651 4.56899,5.69545 6.12227,9.514318 1.68955,4.156354 1.93345,5.194696 1.31826,5.61282 -0.78701,0.535598 -3.58153,1.436556 -4.16215,1.342976 -0.83935,-0.136388 -1.90284,-1.58489 -3.40872,-4.64118 -3.19543,-6.485903 -4.9304,-7.668598 -10.43451,-7.114085 -6.14794,0.619222 -14.96696,3.115025 -32.165589,9.103162 -16.715757,5.819892 -29.453029,10.821455 -42.008609,16.495998 -3.102605,1.402708 -3.958735,1.894501 -4.778328,2.746678 -2.126006,2.20909 -2.99991,5.949312 -2.579251,11.039477 0.321913,3.900502 0.944014,6.318654 4.608485,17.924589 5.269097,16.68615 8.631406,24.48615 13.903465,32.24535 3.185553,4.68996 4.962984,6.0399 8.532659,6.48192 3.970585,0.4908 2.61875,0.89399 36.346498,-10.82644 29.23283,-10.15743 38.82306,-13.69357 42.40458,-15.63286 3.33368,-1.8059 4.096,-6.19919 2.53284,-14.58458 -0.72973,-3.91145 -0.74158,-4.159338 -0.24291,-5.056315 1.01116,-1.823818 2.97917,-2.329549 4.30632,-1.108029 1.19285,1.097079 2.53284,5.518244 3.13717,10.357534 0.77812,6.23802 1.01609,10.56162 0.63493,11.55716 -0.74257,1.94427 -4.14339,4.13146 -9.66626,6.2191 -1.69449,0.64012 -21.24031,7.40378 -43.4345,15.03057 z M 222.82438,96.447739 c -1.78764,0.158583 -2.96235,-0.03172 -4.53932,-0.73642 L 217,95.137447 l 0.42635,-0.674969 c 0.66108,-1.043675 2.46779,-2.208268 5.92169,-3.81293 1.74049,-0.807782 3.61842,-1.807846 4.17317,-2.221153 6.10728,-4.545385 9.44883,-8.719091 13.03013,-16.277553 1.75354,-3.697957 4.96166,-12.46264 5.0038,-13.670844 0.009,-0.244813 0.42032,-0.524315 1.12956,-0.765163 1.30312,-0.443042 1.24995,-0.590722 1.31114,3.595869 0.13944,9.453528 -3.23019,18.463024 -9.81899,26.247467 -1.48068,1.751351 -1.79768,1.978323 -7.09941,5.098443 -5.96584,3.510631 -6.18152,3.608754 -8.25306,3.791125 z m -120.8636,36.848021 c 0.0246,-0.70912 4.76858,-16.57306 5.92338,-19.80962 2.37937,-6.6633 6.26343,-15.197419 8.01381,-17.604048 1.30222,-1.791601 3.99118,-3.825846 6.83739,-5.172766 3.39068,-1.604419 32.34123,-11.634019 54.89272,-19.017318 19.13231,-6.263176 18.5957,-6.126504 24.61343,-6.277042 1.86438,-0.04754 3.41918,-0.149547 3.45751,-0.226797 0.0383,-0.07824 -0.37248,-0.437749 -0.91204,-0.800229 -1.26783,-0.850738 -3.64818,-1.460814 -5.93911,-1.524198 -3.82803,-0.103 -5.00347,0.216894 -24.45912,6.644474 -17.54212,5.796706 -25.45864,8.334065 -46.56147,14.92803 l -9.88704,3.089002 -1.70124,-0.225807 C 113.24242,86.901307 110.42373,85.344426 95.986294,76.110103 88.319415,71.207712 82.026501,67.13526 82.000948,67.060981 c -0.0855,-0.250566 5.641313,-1.726236 6.090456,-1.568765 0.245702,0.08616 4.017715,2.603715 8.379413,5.593678 9.395633,6.439465 12.118013,8.120144 16.035483,9.900851 3.87914,1.76288 5.14205,2.089706 7.10471,1.843101 3.78086,-0.475384 13.4281,-3.62777 34.76582,-11.358693 24.73529,-8.962958 33.12748,-11.672644 37.33881,-12.057903 3.36218,-0.306028 7.62462,-0.295133 10.39613,0.02773 1.17053,0.136673 2.15628,0.190154 2.1897,0.117856 0.15233,-0.312961 -1.29338,-1.368708 -2.80788,-2.050091 -4.74893,-2.140216 -10.82169,-2.393754 -17.74557,-0.739816 -2.77446,0.661576 -18.20846,5.877918 -28.18592,9.526486 -3.1155,1.137949 -9.34257,3.344521 -13.83793,4.900411 -7.34255,2.542311 -8.50423,2.881021 -11.41432,3.334617 -3.85555,0.601162 -8.36271,0.697229 -11.19123,0.237691 -1.69632,-0.276316 -2.20935,-0.49222 -2.9779,-1.258775 -2.21033,-2.20261 -4.81674,-9.382881 -5.64426,-15.54801 l -0.18772,-1.4004 1.96267,-0.681383 c 1.08109,-0.374364 1.99116,-0.659595 2.02458,-0.632854 0.0334,0.02773 1.07126,2.775051 2.30665,6.109667 2.458,6.632589 2.68208,7.019829 4.7676,8.219182 1.5204,0.874507 2.31647,0.951757 4.73909,0.461518 5.12927,-1.03594 8.92291,-2.231331 26.78445,-8.433104 11.02218,-3.827827 20.16523,-6.881175 22.00406,-7.348636 8.62709,-2.194687 15.91264,-2.835464 22.73233,-1.998591 3.30715,0.406057 3.70126,0.527874 6.45901,1.988687 5.19021,2.748311 10.72734,6.905935 14.42171,10.83082 l 1.68355,1.787639 -0.60835,-1.489534 c -1.35923,-3.321742 -9.14109,-9.870149 -20.27532,-17.061313 -2.0747,-1.339988 -3.80149,-2.524485 -3.83884,-2.630456 -0.12187,-0.358518 0.76462,-1.350881 1.40738,-1.573717 1.13121,-0.393182 4.72534,0.579374 6.62314,1.790611 9.6777,6.179985 16.27725,11.659769 20.23796,16.803814 0.88649,1.149834 1.96955,2.278869 2.40788,2.507648 l 0.79411,0.41695 0.4914,-1.015141 0.4914,-1.015142 -1.40443,-2.011466 c -3.13613,-4.494354 -5.75138,-7.037656 -15.09395,-14.684396 -7.12732,-5.834341 -7.18432,-5.906639 -5.17841,-6.601887 0.86684,-0.302067 1.47519,-0.255519 3.30518,0.246605 1.23244,0.33772 2.46685,0.694258 2.74105,0.792305 0.80688,0.287211 8.66344,7.041617 11.58435,9.960274 1.47716,1.474679 3.53024,3.847634 4.56415,5.272794 2.73909,3.778308 2.74499,3.781279 3.72878,2.045139 0.62801,-1.110218 0.62899,-1.159737 0.0216,-2.464071 -1.41623,-3.045425 -5.15876,-8.094393 -8.87574,-11.977681 -1.03784,-1.082488 -1.93711,-2.118428 -2.00001,-2.301648 -0.0629,-0.184211 0.0845,-0.811123 0.32629,-1.392478 0.42556,-1.018112 0.47175,-1.051785 1.27372,-0.93393 1.35628,0.200057 4.07472,1.689592 5.46146,2.993925 0.71155,0.668508 2.67029,3.155358 4.35285,5.527323 1.68257,2.371965 3.14794,4.280432 3.25703,4.243787 0.11007,-0.03862 0.40688,-0.663556 0.66339,-1.389506 1.17937,-3.350462 1.80738,-3.977374 3.22852,-3.223694 0.91795,0.488259 1.25308,1.426151 1.25308,3.524771 9.9e-4,2.168937 0.20934,2.69681 1.10271,2.783964 0.40099,0.03863 0.89043,0.01387 1.08895,-0.05546 0.48649,-0.167374 0.67421,0.49222 0.67421,2.375927 0.002,5.57189 -2.16414,11.239847 -6.58776,17.242553 -4.20248,5.70163 -10.52586,10.54856 -17.19617,13.178025 -3.30813,1.305324 -5.39463,1.590554 -7.4546,1.018113 -1.5833,-0.438739 -1.89387,-1.198362 -0.98674,-2.4096 0.99067,-1.325131 2.55629,-2.325417 6.01872,-3.848625 10.74994,-4.731055 17.73377,-11.682548 21.27974,-21.185264 0.55725,-1.490525 0.55921,-1.555891 0.0275,-0.862623 -5.83787,7.603164 -12.81187,14.096109 -18.65761,17.370312 -1.75332,0.981469 -3.11648,1.532122 -5.9617,2.41059 -3.91059,1.205295 -6.37646,1.538064 -9.45264,1.274622 -1.70124,-0.145586 -2.00493,-0.420912 -2.51894,-2.276888 l -0.29779,-1.078526 -20.35,6.92079 c -11.19319,3.806038 -22.96428,7.82798 -26.15938,8.937208 -7.38973,2.56509 -14.41189,5.537227 -20.21733,8.557892 -2.74105,1.42516 -3.11746,1.97977 -3.24031,4.77562 -0.0835,1.8847 0.88747,5.14207 2.86979,9.63246 1.23441,2.79684 1.5096,4.59933 0.8462,5.52138 -0.24177,0.33574 -0.98575,0.74873 -1.95185,1.08348 -1.85456,0.64474 -1.85358,0.64474 -3.42214,-2.5948 -2.29584,-4.74591 -3.76415,-10.26135 -3.80543,-14.29617 -0.0157,-1.61828 0.0934,-1.96987 1.01721,-3.28015 1.94792,-2.764151 5.84279,-5.50949 11.66887,-8.22908 1.42802,-0.665537 7.57056,-2.919646 14.27625,-5.239121 6.47277,-2.238264 18.04139,-6.328542 25.70631,-9.088737 8.92389,-3.2128 16.45809,-5.779871 20.9446,-7.135704 3.85457,-1.16568 7.03985,-2.183792 7.07916,-2.263023 0.1602,-0.333759 -3.2128,-0.730902 -5.10568,-0.601162 -3.72681,0.256509 -5.32289,0.7002 -20.38244,5.665976 -8.21529,2.709686 -21.55689,7.076281 -29.64933,9.703765 -22.351,7.25752 -24.37361,7.966634 -26.09549,9.154102 -3.04375,2.096639 -5.49586,4.541892 -7.33567,7.313974 -1.85751,2.79882 -3.63737,7.08915 -7.55582,18.2151 l -4.22804,12.00542 -2.58675,0.89728 c -2.18478,0.75765 -2.58577,0.83291 -2.57397,0.47836 z"
               id="path370"
               fill="#ffffff"
               fill-rule="nonzero" /></g><path
             d="M 249.997,500 C 112.264,500 0,387.737 0,250.003 0,112.269 112.264,0 249.997,0 387.731,0 500,112.269 500,250.003 500,387.737 387.731,500 249.997,500 Z m 0,-56.832 c 107.021,0 193.171,-86.144 193.171,-193.165 0,-107.021 -86.15,-193.171 -193.171,-193.171 -107.019,0 -193.165,86.15 -193.165,193.171 0,107.021 86.146,193.165 193.165,193.165 z"
             id="path374"
             fill="#231f20"
             fill-rule="nonzero" /><g
             id="g396"
             transform="translate(99,10)"
             fill="#ffffff"><path
               d="m 20.344,67.627 2.879,-2.122 C 29.298,61.028 30.462,55.423 25.811,49.111 20.84,42.366 14.946,42.875 8.714,47.468 l -7.889,5.814 21.918,29.742 5.799,-4.273 z M 10.17,53.821 11.195,53.066 c 3.235,-2.384 5.851,-3.46 8.67,0.366 2.849,3.866 1.548,5.982 -1.884,8.511 l -1.184,0.872 z"
               id="path376"
               fill-rule="nonzero" /><path
               d="m 71.075,33.12 c -4.795,-9.873 -15,-14.286 -24.917,-9.47 -9.918,4.816 -12.759,15.566 -7.965,25.439 4.753,9.785 14.823,14.482 24.961,9.558 10.137,-4.923 12.673,-15.742 7.921,-25.527 z m -6.828,2.99 c 2.483,5.112 2.987,12.657 -4.197,16.146 -7.185,3.489 -12.802,-1.572 -15.285,-6.685 -2.612,-5.378 -1.63,-12.554 4.496,-15.53 6.127,-2.975 12.374,0.691 14.986,6.069 z"
               id="path378"
               fill-rule="nonzero" /><polygon
               id="polygon380"
               points="104.204,42.708 102.455,36.685 92.667,39.528 84.111,10.072 77.194,12.081 87.499,47.56 " /><polygon
               id="polygon382"
               points="118.484,40.073 111.948,3.71 104.859,4.984 111.395,41.348 " /><polygon
               id="polygon384"
               points="123.516,1.888 123.936,8.146 131.367,7.648 133.418,38.253 140.605,37.772 138.554,7.166 145.985,6.669 145.566,0.411 " /><polygon
               id="polygon386"
               points="162.891,37.878 164.443,0.964 157.246,0.662 155.694,37.575 " /><path
               d="m 199.021,8.378 c -1.828,-2.826 -6.071,-5.146 -9.312,-5.668 -6.144,-0.989 -11.429,3.173 -12.403,9.22 -0.911,5.66 2.142,8.584 6.523,11.274 2.676,1.572 5.987,3.197 5.38,6.971 -0.452,2.806 -2.639,4.985 -5.541,4.517 -3.048,-0.49 -5.207,-3.418 -5.723,-6.38 l -5.32,3.759 c 1.838,4.614 5.048,8.108 10.079,8.918 7.45,1.199 12.831,-3.245 14.006,-10.55 1.971,-12.239 -12.907,-12.004 -11.918,-18.148 0.382,-2.37 2.839,-3.761 5.113,-3.395 2.37,0.381 3.925,1.823 4.983,3.879 z"
               id="path388" /><path
               d="m 238.107,17.881 c -1.941,-2.088 -4.392,-3.726 -7.136,-4.636 -10.279,-3.406 -20.216,3.057 -23.514,13.011 -3.206,9.675 1.275,20.606 11.136,23.874 2.837,0.94 5.688,0.904 8.647,0.543 l 2.698,-8.14 c -2.632,1.554 -6.071,2.118 -9.001,1.147 -6.372,-2.112 -8.322,-9.314 -6.364,-15.221 2.004,-6.046 7.775,-10.844 14.333,-8.671 2.93,0.971 5.352,3.322 6.488,6.28 z"
               id="path390" /><polygon
               id="polygon392"
               points="235.913,55.601 242.236,59.051 250.146,44.555 261.845,50.939 253.936,65.435 260.259,68.885 277.955,36.453 271.632,33.003 264.662,45.778 252.962,39.394 259.933,26.619 253.61,23.169 " /><polygon
               id="polygon394"
               points="268.652,74.925 283.667,86.747 287.547,81.819 278.191,74.453 284.375,66.599 293.384,73.692 297.263,68.764 288.255,61.671 293.286,55.28 302.642,62.646 306.522,57.718 291.507,45.896 " /></g><g
             id="g410"
             transform="translate(134,425)"
             fill="#ffffff"><path
               d="m 24.582,38.516 -0.68,8.265 6.987,3.22 3.144,-40.31 -5.074,-2.338 -28.955,28.417 6.898,3.178 6.02,-5.804 z m 0.636,-6.181 -7.966,-3.671 9.312,-10.492 0.089,0.041 z"
               id="path398"
               fill-rule="nonzero" /><polygon
               id="polygon400"
               points="56.132,19.389 47.332,55.272 54.328,56.987 58.284,40.855 58.379,40.878 65.892,59.824 74.886,62.029 65.253,39.183 82.925,25.96 74.311,23.848 59.511,36.262 59.416,36.238 63.128,21.105 " /><polygon
               id="polygon402"
               points="91.63,26.893 91.217,33.152 98.649,33.642 96.63,64.25 103.817,64.724 105.836,34.116 113.268,34.607 113.681,28.348 " /><polygon
               id="polygon404"
               points="136.088,64.207 133.522,27.35 126.336,27.85 128.903,64.707 " /><path
               d="M 185.728,35.929 C 183.147,25.26 174.116,18.774 163.4,21.367 c -10.716,2.593 -15.782,12.49 -13.201,23.158 2.559,10.573 11.397,17.307 22.351,14.657 10.954,-2.651 15.736,-12.681 13.178,-23.253 z m -7.308,1.465 c 1.337,5.525 0.222,13.004 -7.541,14.882 -7.763,1.879 -12.173,-4.263 -13.51,-9.788 -1.406,-5.81 1.082,-12.613 7.702,-14.215 6.62,-1.602 11.943,3.311 13.349,9.121 z"
               id="path406"
               fill-rule="nonzero" /><polygon
               id="polygon408"
               points="203.044,21.67 231.875,36.298 236.539,34.012 219.958,0.176 213.49,3.345 224.422,25.654 224.334,25.697 195.502,11.069 190.838,13.354 207.528,47.411 213.996,44.241 202.956,21.713 " /></g></g></g></g></g><g
     inkscape:groupmode="layer"
     id="layer2"
     inkscape:label="draft"
     style="display:none"><g
       id="g3083"><path
         d="M 79.268997,132.29468 C 145.41929,38.486564 275.79813,15.942744 369.6068,82.093656 463.41549,148.24449 485.96223,278.62642 419.81189,372.4344 353.66109,466.24309 223.27576,488.78741 129.46707,422.6366 35.658436,356.4858 13.118189,226.10335 79.268997,132.29468 Z m 38.707443,27.29524 c -51.399958,72.89051 -34.104573,172.93922 38.78587,224.33922 72.89051,51.39997 172.94213,34.10053 224.34211,-38.78998 51.39903,-72.88913 34.09763,-172.93802 -38.79286,-224.33799 -72.89049,-51.400055 -172.9361,-34.100384 -224.33512,38.78875 z"
         id="path803"
         fill="#231f20"
         fill-rule="nonzero"
         style="fill:none;stroke:#23e611;stroke-width:0.833394;stroke-opacity:1"
         inkscape:label="North" /><path
         style="fill:none;fill-opacity:1;stroke:#2cf708;stroke-width:1.21901;stroke-opacity:1"
         d="m 105.6682,436.05099 c 103.07995,79.96344 250.42215,61.3609 330.38566,-41.719 C 516.01733,291.25206 497.40904,143.90534 394.32908,63.941844 291.25104,-16.020162 143.9082,2.5911652 63.944735,105.67111 -16.018875,208.75105 2.5901535,356.089 105.6682,436.05099 Z"
         id="path1500"
         inkscape:label="South" /><path
         d="M 250,474 C 126.288,474 26,373.712 26,250 26,126.288 126.288,26 250,26 373.712,26 474,126.288 474,250 474,373.712 373.712,474 250,474 Z"
         id="Path"
         style="fill:#ffffff;fill-opacity:1;fill-rule:evenodd;stroke:none;stroke-width:1;stroke-opacity:1"
         inkscape:label="White" /><path
         d="M 249.997,500 C 112.264,500 0,387.737 0,250.003 0,112.269 112.264,0 249.997,0 387.731,0 500,112.269 500,250.003 500,387.737 387.731,500 249.997,500 Z m 0,-56.832 c 107.021,0 193.171,-86.144 193.171,-193.165 0,-107.021 -86.15,-193.171 -193.171,-193.171 -107.019,0 -193.165,86.15 -193.165,193.171 0,107.021 86.146,193.165 193.165,193.165 z"
         id="Circles"
         fill="#231f20"
         fill-rule="nonzero"
         style="stroke:none;stroke-width:1" /><path
         d="m 327.458,421.123 91.52,-253.28 -7.408,-4.358 c -22.228,-20.048 -31.818,-32.688 -55.354,-41.841 -36.203,-14.081 -66.248,13.51 -97.194,21.793 -47.549,12.724 -91.317,9.397 -131.415,-17.189 -4.308,-2.857 -5.789,-5.663 -9.153,-9.59 -28.33,31.384 -50.217,71.78 -54.441,118.481 -0.123,1.364 0.213,2.134 0.436,3.485 9.589,7.845 78.644,72.665 174.967,38.233 38.956,-13.925 64.941,1.742 98.503,22.664 5.46,3.405 5.126,3.35 8.28,5.665 l -41.406,125.525 10.897,-3.05 11.768,-6.538"
         id="Black"
         fill="#231f20"
         style="fill-rule:evenodd;stroke:none;stroke-width:1" /><path
         d="m 297.385,286.88 -54.612,150.849 c -2.697,0.111 -4.23,0.13 -6.917,-0.116 -4.791,-0.439 -7.514,-1.035 -12.058,-2.615 l 27.822,-82.304 -4.359,-3.051 c -16.126,-6.101 -23.409,-11.296 -44.892,-7.409 -45.764,8.281 -105.601,-13.106 -127.981,-59.9 -4.794,-10.025 -7.458,-14.63 -9.068,-24.801 -0.661,-4.189 -0.875,-6.599 -0.871055,-10.84 C 108.461,283.131 152.966,301.575 213.701,291.24 c 28.538,-4.856 46.732,-19.781 73.658,-9.153 4.032,1.593 6.268,2.634 10.026,4.793"
         id="Red"
         fill="#ed1c24"
         style="fill-rule:evenodd;stroke:none;stroke-width:1" /><g
         id="g687"
         transform="translate(361.62334,96.068229)"><path
           d="m -81.66382,114.63997 a 44.660385,44.660385 0 1 0 -10.419005,28.91891 l -12.428725,-3.45198 z"
           fill="#ff9000"
           id="path612"
           style="stroke-width:0.262708"
           inkscape:label="Orange" /><path
           d="m -106.62635,108.52413 c 0.89058,-5.94246 -3.63588,-9.136994 -9.82266,-11.267557 l 2.01498,-8.049377 -4.89951,-1.221593 -1.95455,7.836584 c -1.28727,-0.320504 -2.60869,-0.622619 -3.92486,-0.922106 l 1.96768,-7.881244 -4.89688,-1.218966 -2.00709,8.04675 c -1.06659,-0.244318 -2.1148,-0.483383 -3.13148,-0.735582 v -0.02627 l -6.75948,-1.686586 -1.31354,5.233146 c 0,0 3.63588,0.832785 3.5597,0.885326 1.99395,0.475502 2.34335,1.789043 2.29344,2.839875 l -2.28556,9.17114 a 3.9169785,3.9169785 0 0 1 0.50965,0.16288 l -0.52541,-0.12873 -3.20504,12.84643 c -0.24432,0.6016 -0.85906,1.50795 -2.24616,1.1638 0.0499,0.0709 -3.56232,-0.88795 -3.56232,-0.88795 l -2.43268,5.60881 6.37856,1.57625 c 1.18481,0.29686 2.34861,0.60686 3.49139,0.90109 l -2.02811,8.14395 4.90476,1.23211 2.00709,-8.05464 c 1.33719,0.36254 2.62708,0.69618 3.90384,1.01143 l -1.9992,8.01785 4.8995,1.2216 2.02811,-8.12557 c 8.35412,1.57625 14.6381,0.94313 17.28357,-6.61499 2.13056,-6.08432 -0.10771,-9.5941 -4.50282,-11.88229 3.19979,-0.73821 5.61145,-2.84513 6.25508,-7.19557 z m -11.19399,15.69943 c -1.51583,6.08433 -11.76145,2.79522 -15.08208,1.97032 l 2.69013,-10.7868 c 3.32326,0.83016 13.97345,2.47208 12.39195,8.81648 z m 1.51582,-15.78613 c -1.38184,5.53526 -9.90935,2.72166 -12.67566,2.03336 l 2.44055,-9.78325 c 2.76369,0.6883 11.67213,1.97557 10.23511,7.74989 z"
           fill="#ffffff"
           id="path614"
           style="stroke-width:0.262708"
           inkscape:label="BC" /><path
           d="m -74.562818,110.68359 -25.219983,28.10977 14.18624,3.94062 -9.982909,21.80478 27.584355,-27.84707 -16.550613,-4.46603 z"
           fill="#ffba00"
           id="path616"
           style="stroke-width:0.262708"
           inkscape:label="LN" /></g><text
         xml:space="preserve"
         style="font-style:normal;font-weight:normal;font-size:40px;line-height:1.25;font-family:sans-serif;letter-spacing:2px;fill:#ffffff;fill-opacity:1;stroke:none"
         id="text801"
         inkscape:label="Souveränität"><textPath
           xlink:href="#path1500"
           id="textPath1502"><tspan
             id="tspan799"
             dx="0">SOUVERÄNITÄT</tspan></textPath></text><text
         xml:space="preserve"
         style="font-style:normal;font-weight:normal;font-size:40px;line-height:1.25;font-family:sans-serif;letter-spacing:2px;fill:#ffffff;fill-opacity:1;stroke:none"
         id="text797"
         inkscape:label="Finanzpolitische"><textPath
           xlink:href="#path803"
           id="textPath805"><tspan
             id="tspan795"
             dx="0.2">FINANZPOLITISCHE</tspan></textPath></text></g></g><g
     inkscape:groupmode="layer"
     id="layer3"
     inkscape:label="print"><path
       d="M 250,474 C 126.288,474 26,373.712 26,250 26,126.288 126.288,26 250,26 373.712,26 474,126.288 474,250 474,373.712 373.712,474 250,474 Z"
       id="path3107"
       style="fill:#ffffff;fill-opacity:1;fill-rule:evenodd;stroke:none;stroke-width:1;stroke-opacity:1"
       inkscape:label="White" /><path
       d="M 249.997,500 C 112.264,500 0,387.737 0,250.003 0,112.269 112.264,0 249.997,0 387.731,0 500,112.269 500,250.003 500,387.737 387.731,500 249.997,500 Z m 0,-56.832 c 107.021,0 193.171,-86.144 193.171,-193.165 0,-107.021 -86.15,-193.171 -193.171,-193.171 -107.019,0 -193.165,86.15 -193.165,193.171 0,107.021 86.146,193.165 193.165,193.165 z"
       id="path3109"
       fill="#231f20"
       fill-rule="nonzero"
       style="stroke:none;stroke-width:1" /><g
       aria-label="SOUVERÄNITÄT"
       id="text3127"
       style="font-size:40px;line-height:1.25;letter-spacing:2px;fill:#ffffff"
       inkscape:label="Souveränität"><path
         d="m 126.33344,441.58401 q -2.19024,3.1053 -5.66758,3.24692 -3.47735,0.14163 -7.30177,-2.55582 -1.96124,-1.3833 -3.4208,-2.8533 -1.45956,-1.46999 -2.20205,-2.77686 l 1.98274,-2.81112 q 0.80786,1.35298 2.24058,2.99984 1.4654,1.66991 3.32858,2.98405 2.61498,1.84441 4.63719,1.75331 2.05488,-0.0681 3.27681,-1.80048 0.80692,-1.14406 0.86994,-2.27438 0.063,-1.13032 -0.68532,-2.63711 -0.69259,-1.51642 -2.287,-3.76681 -2.21373,-3.17669 -2.64339,-5.82928 -0.39697,-2.62952 1.5166,-5.34257 1.31414,-1.86318 3.18428,-2.50208 1.89319,-0.67158 4.06746,-0.21489 2.20695,0.47974 4.397,2.02443 1.92856,1.36025 3.27663,2.84951 1.34807,1.48926 2.24058,2.99984 l -2.69049,1.87138 q -0.84055,-1.37603 -2.02519,-2.75002 -1.15195,-1.35093 -2.68826,-2.43452 -2.19005,-1.54469 -3.97001,-1.38063 -1.75692,0.13137 -2.84051,1.66768 -0.82998,1.17674 -0.89299,2.30707 -0.063,1.13032 0.61031,2.53525 0.67332,1.40493 2.06197,3.46125 1.52904,2.20428 2.31211,4.07821 0.83881,1.86429 0.70489,3.58094 -0.10123,1.7397 -1.39231,3.57019 z"
         id="path3203" /><path
         d="m 157.18894,451.27525 q -2.1058,3.90886 -5.01858,6.11079 -2.85859,2.18569 -6.30196,2.42068 -3.44337,0.23499 -7.24658,-1.8139 -3.90886,-2.1058 -5.64209,-5.12956 -1.69802,-3.00479 -1.39115,-6.61059 0.30687,-3.60581 2.41268,-7.51467 2.08683,-3.87364 4.91021,-6.0783 2.82337,-2.20467 6.26674,-2.43966 3.47858,-0.21602 7.42266,1.90876 3.768,2.02992 5.46602,5.0347 1.71698,2.96958 1.44533,6.59435 -0.21747,3.60853 -2.32328,7.5174 z m -19.86123,-10.69977 q -2.56112,4.75402 -2.03362,8.58215 0.54647,3.79291 4.80748,6.08843 4.29623,2.31448 7.72905,0.66532 3.45179,-1.68438 6.0129,-6.4384 2.56111,-4.75402 2.03089,-8.49274 -0.51126,-3.77394 -4.77227,-6.06946 -4.26101,-2.29551 -7.76426,-0.68429 -3.44906,1.59497 -6.01017,6.34899 z"
         id="path3205" /><path
         d="m 181.94359,465.32532 q -1.03418,2.77346 -2.99708,4.60294 -1.94892,1.79201 -4.76177,2.23731 -2.7614,0.42179 -6.32192,-0.90587 -4.98473,-1.85873 -6.60204,-5.53551 -1.56586,-3.70029 0.0972,-8.16031 l 6.42869,-17.24041 3.37312,1.25778 -6.47061,17.35286 q -1.21586,3.26069 -0.16264,5.70255 1.0907,2.45585 4.61374,3.76954 3.63548,1.35561 5.95983,0.0451 2.37581,-1.334 3.50781,-4.36981 l 6.45664,-17.31538 3.33565,1.24381 z"
         id="path3207" /><path
         d="m 213.80363,454.28151 -16.55883,25.40706 -3.50141,-0.83675 -3.28248,-30.14861 3.65703,0.87393 2.00553,19.31512 q 0.2134,1.86056 0.27876,3.4801 0.0746,1.58064 0.0216,3.00738 0.59773,-1.29657 1.38827,-2.71158 0.79054,-1.41501 1.83138,-3.01696 l 10.46423,-16.25292 z"
         id="path3209" /><path
         d="m 228.84168,484.89529 -15.8308,-2.02667 3.62668,-28.3288 15.8308,2.02667 -0.40127,3.13442 -12.25994,-1.56953 -1.1327,8.84779 11.54577,1.4781 -0.3962,3.09474 -11.54577,-1.4781 -1.29524,10.11743 12.25994,1.56953 z"
         id="path3211" /><path
         d="m 245.52064,457.08061 q 5.31909,0.0985 7.8009,2.18478 2.52253,2.04705 2.44701,6.12635 -0.0422,2.27961 -0.9102,3.7838 -0.86799,1.50419 -2.2048,2.3996 -1.29607,0.85615 -2.74545,1.34941 l 7.60172,12.94293 -4.19928,-0.0777 -6.70039,-11.92607 -5.67902,-0.10514 -0.21843,11.79797 -3.59939,-0.0666 0.52868,-28.5551 z m -0.25772,3.11577 -4.0793,-0.0755 -0.19622,10.59819 4.27927,0.0792 q 3.4794,0.0644 5.1043,-1.26573 1.62564,-1.37014 1.67525,-4.04968 0.0518,-2.79952 -1.6064,-3.99042 -1.6575,-1.23089 -5.1769,-1.29605 z"
         id="path3213" /><path
         d="m 281.83321,483.70453 -4.2808,-8.46486 -11.26668,1.09743 -2.52698,9.12798 -3.62286,0.35288 8.32701,-29.62683 3.22474,-0.3141 13.84805,27.46686 z m -9.68849,-19.83416 q -0.15046,-0.30686 -0.51057,-1.11576 -0.36012,-0.8089 -0.72411,-1.65761 -0.32806,-0.8924 -0.53385,-1.35462 -0.15846,1.2613 -0.40043,2.49055 -0.24585,1.18943 -0.41879,1.8895 l -2.38712,8.91341 8.99741,-0.8764 z m -8.29326,-12.93694 q -0.10082,-1.0351 0.41389,-1.52732 0.51082,-0.53203 1.26724,-0.60571 0.75642,-0.0737 1.36032,0.34977 0.60002,0.38364 0.70084,1.41874 0.0969,0.99529 -0.41,1.56713 -0.51083,0.53203 -1.26725,0.60571 -0.75642,0.0737 -1.36031,-0.34977 -0.60778,-0.46326 -0.70473,-1.45855 z m 7.48458,-0.72904 q -0.10082,-1.0351 0.37407,-1.52344 0.51083,-0.53203 1.26725,-0.60571 0.75642,-0.0737 1.36032,0.34977 0.60002,0.38364 0.70084,1.41874 0.0969,0.99529 -0.41,1.56713 -0.51083,0.53203 -1.26725,0.60571 -0.75642,0.0737 -1.36032,-0.34977 -0.56796,-0.46714 -0.66491,-1.46243 z"
         id="path3215" /><path
         d="m 313.46562,477.26583 -4.09472,0.93448 -20.17458,-19.72569 -0.15599,0.0356 q 0.38949,1.3471 0.96927,3.34827 0.57978,2.00116 1.06927,4.14601 l 3.55103,15.55994 -3.23678,0.73869 -6.35447,-27.84411 4.05572,-0.92558 20.11779,19.6566 0.15599,-0.0356 q -0.1814,-0.61506 -0.54418,-1.84517 -0.3238,-1.23902 -0.73998,-2.70312 -0.37719,-1.473 -0.66199,-2.72091 l -3.58663,-15.71593 3.27578,-0.74759 z"
         id="path3217" /><path
         d="m 330.36495,471.62034 -9.77536,3.3083 -0.66679,-1.97022 2.93904,-1.79702 -7.32187,-21.63459 -3.43913,0.31934 -0.66679,-1.97022 9.77535,-3.30831 0.66679,1.97022 -2.92622,1.83491 7.32188,21.63459 3.42631,-0.35723 z"
         id="path3219" /><path
         d="m 345.70906,465.39199 -3.30849,1.4191 -10.01255,-23.34328 -8.19772,3.51621 -1.24565,-2.90412 19.66717,-8.43577 1.24566,2.90413 -8.16096,3.50045 z"
         id="path3221" /><path
         d="m 372.6396,451.48519 -7.28059,-6.08048 -9.91316,5.4655 1.29066,9.38295 -3.18762,1.75746 -4.07418,-30.50392 2.83734,-1.56433 23.58523,19.74674 z m -16.74524,-14.38255 q -0.25959,-0.22229 -0.91036,-0.82271 -0.65076,-0.60042 -1.32085,-1.23586 -0.65436,-0.68979 -1.02623,-1.03288 0.35349,1.22108 0.61761,2.44576 0.24481,1.18965 0.36296,1.90101 l 1.33421,9.13056 7.91651,-4.36467 z m -12.73499,-8.60014 q -0.50213,-0.91074 -0.22417,-1.56644 0.25865,-0.69072 0.9242,-1.05767 0.66555,-0.36694 1.3877,-0.21697 0.70285,0.11494 1.20498,1.02569 0.48281,0.87572 0.24348,1.60147 -0.25866,0.69073 -0.9242,1.05767 -0.66555,0.36694 -1.38771,0.21697 -0.74147,-0.18499 -1.22428,-1.06072 z m 6.58542,-3.63079 q -0.50213,-0.91075 -0.2592,-1.54713 0.25865,-0.69072 0.9242,-1.05766 0.66555,-0.36695 1.3877,-0.21698 0.70285,0.11494 1.20498,1.02569 0.48281,0.87572 0.24348,1.60147 -0.25865,0.69073 -0.9242,1.05767 -0.66555,0.36694 -1.38771,0.21697 -0.70644,-0.20431 -1.18925,-1.08003 z"
         id="path3223" /><path
         d="m 385.78829,442.55679 -2.95358,2.05824 -14.522,-20.83919 -7.31833,5.09986 -1.80667,-2.5926 17.55742,-12.23506 1.80668,2.59259 -7.28551,5.07698 z"
         id="path3225" /></g><g
       aria-label="FINANZPOLITISCHE"
       id="text3133"
       style="font-size:40px;line-height:1.25;letter-spacing:2px;fill:#ffffff"
       inkscape:label="Finanzpolitische"><path
         d="m 83.792344,126.08779 -2.220201,2.83386 -22.481882,-17.6136 9.84289,-12.563401 2.487491,1.948841 -7.622689,9.72956 7.966269,6.24123 7.15398,-9.1313 2.487491,1.94884 -7.15398,9.1313 z"
         id="path3170" /><path
         d="m 101.60064,105.54785 -7.084101,7.50452 -1.512539,-1.4278 1.753794,-2.96503 -16.608846,-15.678388 -2.888199,1.894177 -1.512539,-1.427804 7.084105,-7.504522 1.51254,1.427804 -1.724707,2.992488 16.608845,15.678385 2.859107,-1.92163 z"
         id="path3172" /><path
         d="m 124.17794,85.563925 -3.21736,2.699731 -26.952145,-8.348581 -0.122566,0.102847 q 0.961194,1.021032 2.390128,2.53726 1.428935,1.516227 2.84308,3.201515 l 10.258983,12.225993 -2.54325,2.13407 -18.35818,-21.87809 3.186726,-2.67402 26.870074,8.313009 0.12257,-0.102847 q -0.44203,-0.464553 -1.32609,-1.393661 -0.85342,-0.954819 -1.89174,-2.067776 -1.00769,-1.138668 -1.83047,-2.119199 l -10.36182,-12.34856 2.57389,-2.159785 z"
         id="path3174" /><path
         d="m 147.46361,70.563127 -7.57085,-5.71502 -9.63234,5.946465 1.7506,9.308115 -3.09732,1.912114 -5.56959,-30.26661 2.75696,-1.701992 24.52793,18.56279 z M 130.03123,57.021603 q -0.27021,-0.209255 -0.94973,-0.776937 -0.67951,-0.567681 -1.38003,-1.169399 -0.6875,-0.656767 -1.0758,-0.981156 0.41313,1.202218 0.73717,2.412424 0.30302,1.17617 0.45601,1.880864 l 1.78169,9.053883 7.69225,-4.748767 z"
         id="path3176" /><path
         d="m 176.73155,56.943929 -3.8536,1.670247 -23.45271,-15.687174 -0.1468,0.06363 q 0.63015,1.252721 1.56742,3.113452 0.93728,1.86073 1.81217,3.879285 l 6.34694,14.6437 -3.04618,1.320291 -11.35769,-26.204515 3.81691,-1.654341 23.38419,15.62968 0.1468,-0.06363 q -0.29121,-0.571309 -0.87364,-1.713927 -0.54573,-1.158525 -1.22361,-2.521349 -0.64117,-1.378731 -1.1502,-2.553163 l -6.41056,-14.790504 3.08288,-1.336198 z"
         id="path3178" /><path
         d="m 202.83529,49.229556 -19.0703,5.325748 -0.73162,-2.619758 8.39609,-25.851055 -14.02342,3.916308 -0.86072,-3.082069 18.22273,-5.089049 0.73162,2.619759 -8.39609,25.851055 14.87099,-4.153008 z"
         id="path3180" /><path
         d="m 213.32679,18.389751 q 5.53631,-0.842174 8.39805,0.947812 2.86174,1.789986 3.46329,5.744494 0.35492,2.33316 -0.39999,4.551923 -0.72138,2.173203 -3.02023,3.817624 -2.25929,1.638405 -6.49062,2.282066 l -3.24269,0.493273 1.67231,10.993533 -3.55906,0.541397 -4.29508,-28.235188 z m 0.14683,3.093095 -3.5986,0.547413 1.69638,11.151713 2.84725,-0.433118 q 4.03359,-0.613583 5.81234,-2.219347 1.77874,-1.605764 1.30351,-4.729826 -0.41507,-2.72861 -2.35958,-3.80846 -1.94451,-1.07985 -5.7013,-0.508375 z"
         id="path3182" /><path
         d="m 260.9164,29.697542 q 0.0424,4.439797 -1.44575,7.774176 -1.44858,3.293998 -4.35085,5.161829 -2.90228,1.86783 -7.22208,1.909127 -4.4398,0.04245 -7.41725,-1.769174 -2.93746,-1.812002 -4.40913,-5.118084 -1.47168,-3.306082 -1.51412,-7.74588 -0.0421,-4.399799 1.36652,-7.693415 1.40857,-3.293616 4.31085,-5.161446 2.94228,-1.868212 7.42207,-1.91104 4.27981,-0.04092 7.21726,1.771087 2.93708,1.772003 4.44875,5.077703 1.55128,3.26532 1.59373,7.705117 z m -22.55897,0.215666 q 0.0516,5.399753 2.36134,8.497815 2.30934,3.058063 7.14912,3.011794 4.87978,-0.04665 7.09023,-3.147924 2.21007,-3.141271 2.15845,-8.541024 -0.0516,-5.399754 -2.32058,-8.418201 -2.26934,-3.058446 -7.10912,-3.012177 -4.83978,0.04627 -7.13023,3.148306 -2.25083,3.061658 -2.19921,8.461411 z"
         id="path3184" /><path
         d="m 269.35766,44.935612 3.55706,-28.337624 3.57197,0.448368 -3.15851,25.16254 12.38283,1.554345 -0.39855,3.175084 z"
         id="path3186" /><path
         d="m 299.89678,50.147072 -10.07661,-2.228059 0.44907,-2.030945 3.44484,-0.01666 4.93109,-22.301344 -3.10804,-1.506547 0.44906,-2.030946 10.07662,2.228059 -0.44907,2.030945 -3.45348,0.05572 -4.93109,22.301344 3.11668,1.46749 z"
         id="path3188" /><path
         d="m 315.78429,54.816725 -3.42411,-1.111517 7.84238,-24.158999 -8.48419,-2.754092 0.97567,-3.005608 20.35443,6.607352 -0.97567,3.005608 -8.44613,-2.741742 z"
         id="path3190" /><path
         d="m 337.38805,63.357817 -9.46342,-4.116546 0.82969,-1.907358 3.38427,0.643352 9.11065,-20.94425 -2.762,-2.07387 0.82969,-1.907357 9.46343,4.116546 -0.8297,1.907358 -3.40022,-0.606673 -9.11065,20.944251 2.77795,2.03719 z"
         id="path3192" /><path
         d="m 362.0528,67.767503 q -1.84086,3.324342 -5.28238,3.841932 -3.44153,0.51759 -7.53572,-1.74957 -2.09958,-1.162645 -3.70983,-2.465832 -1.61025,-1.303187 -2.48998,-2.521909 l 1.66646,-3.009404 q 0.94971,1.257477 2.55244,2.739391 1.63772,1.501291 3.63232,2.605804 2.79945,1.550195 4.79987,1.240507 2.03542,-0.290311 3.06242,-2.144943 0.67821,-1.224758 0.61838,-2.355253 -0.0598,-1.130495 -0.96704,-2.547322 -0.85282,-1.432442 -2.68169,-3.496816 -2.54492,-2.918117 -3.25947,-5.508524 -0.67957,-2.571029 0.92876,-5.475454 1.10451,-1.994606 2.89441,-2.832383 1.80927,-0.87277 4.02022,-0.654369 2.24595,0.237779 4.59048,1.536067 2.06459,1.143268 3.5661,2.477686 1.50151,1.334418 2.55244,2.739391 l -2.47187,2.151898 q -0.9847,-1.276854 -2.31125,-2.514385 -1.29155,-1.218153 -2.93622,-2.128892 -2.34454,-1.298288 -4.09625,-0.942322 -1.73233,0.320973 -2.64307,1.965648 -0.69759,1.25975 -0.63775,2.390246 0.0598,1.130495 0.88143,2.454196 0.8216,1.323701 2.42489,3.21744 1.75888,2.025619 2.74039,3.803661 1.03589,1.762427 1.08877,3.483474 0.0879,1.740425 -0.99726,3.700037 z"
         id="path3194" /><path
         d="m 389.96356,64.966267 q -3.72202,-2.703072 -7.66801,-1.762268 -3.946,0.940804 -7.09567,5.277761 -3.12616,4.304592 -2.98526,8.262893 0.19677,3.949441 4.17771,6.840553 1.52117,1.104734 3.06855,1.83302 1.54739,0.728286 3.12406,1.280101 l -1.83338,2.524498 q -1.64719,-0.454719 -3.20344,-1.238876 -1.52388,-0.760651 -3.43343,-2.147445 -3.52783,-2.562042 -4.83277,-5.734346 -1.30495,-3.172304 -0.55156,-6.728313 0.78576,-3.532503 3.41832,-7.157423 2.53854,-3.495458 5.7282,-5.232723 3.24552,-1.746125 6.81888,-1.425049 3.59687,0.288712 7.15706,2.874259 3.65728,2.656063 5.38876,5.989825 l -2.95153,1.613588 q -0.71548,-1.261144 -1.7604,-2.613233 -1.01255,-1.328583 -2.56609,-2.456822 z"
         id="path3196" /><path
         d="m 402.35872,110.30941 -2.58595,-2.50457 9.26691,-9.568015 -10.5162,-10.185242 -9.2669,9.568017 -2.58596,-2.504568 19.86958,-20.515207 2.58595,2.504567 -8.40422,8.677301 10.5162,10.185242 8.40422,-8.6773 2.58595,2.504567 z"
         id="path3198" /><path
         d="m 418.61478,130.31499 -9.86246,-12.54805 22.4544,-17.64861 9.86246,12.54805 -2.48445,1.95271 -7.63785,-9.71766 -7.01307,5.51211 7.19292,9.15158 -2.453,1.928 -7.19292,-9.15158 -8.01943,6.30307 7.63785,9.71766 z"
         id="path3200" /></g><path
       d="m 327.458,421.123 91.52,-253.28 -7.408,-4.358 c -22.228,-20.048 -31.818,-32.688 -55.354,-41.841 -36.203,-14.081 -66.248,13.51 -97.194,21.793 -47.549,12.724 -91.317,9.397 -131.415,-17.189 -4.308,-2.857 -5.789,-5.663 -9.153,-9.59 -28.33,31.384 -50.217,71.78 -54.441,118.481 -0.123,1.364 0.213,2.134 0.436,3.485 9.589,7.845 78.644,72.665 174.967,38.233 38.956,-13.925 64.941,1.742 98.503,22.664 5.46,3.405 5.126,3.35 8.28,5.665 l -41.406,125.525 10.897,-3.05 11.768,-6.538"
       id="path3111"
       fill="#231f20"
       style="fill-rule:evenodd;stroke:none;stroke-width:1" /><path
       d="m 297.385,286.88 -54.612,150.849 c -2.697,0.111 -4.23,0.13 -6.917,-0.116 -4.791,-0.439 -7.514,-1.035 -12.058,-2.615 l 27.822,-82.304 -4.359,-3.051 c -16.126,-6.101 -23.409,-11.296 -44.892,-7.409 -45.764,8.281 -105.601,-13.106 -127.981,-59.9 -4.794,-10.025 -7.458,-14.63 -9.068,-24.801 -0.661,-4.189 -0.875,-6.599 -0.871055,-10.84 C 108.461,283.131 152.966,301.575 213.701,291.24 c 28.538,-4.856 46.732,-19.781 73.658,-9.153 4.032,1.593 6.268,2.634 10.026,4.793"
       id="path3113"
       fill="#ed1c24"
       style="fill-rule:evenodd;stroke:none;stroke-width:1" /><g
       id="g3121"
       transform="translate(361.62334,96.068229)"><path
         d="m -81.66382,114.63997 a 44.660385,44.660385 0 1 0 -10.419005,28.91891 l -12.428725,-3.45198 z"
         fill="#ff9000"
         id="path3115"
         style="stroke-width:0.262708"
         inkscape:label="Orange" /><path
         d="m -106.62635,108.52413 c 0.89058,-5.94246 -3.63588,-9.136994 -9.82266,-11.267557 l 2.01498,-8.049377 -4.89951,-1.221593 -1.95455,7.836584 c -1.28727,-0.320504 -2.60869,-0.622619 -3.92486,-0.922106 l 1.96768,-7.881244 -4.89688,-1.218966 -2.00709,8.04675 c -1.06659,-0.244318 -2.1148,-0.483383 -3.13148,-0.735582 v -0.02627 l -6.75948,-1.686586 -1.31354,5.233146 c 0,0 3.63588,0.832785 3.5597,0.885326 1.99395,0.475502 2.34335,1.789043 2.29344,2.839875 l -2.28556,9.17114 a 3.9169785,3.9169785 0 0 1 0.50965,0.16288 l -0.52541,-0.12873 -3.20504,12.84643 c -0.24432,0.6016 -0.85906,1.50795 -2.24616,1.1638 0.0499,0.0709 -3.56232,-0.88795 -3.56232,-0.88795 l -2.43268,5.60881 6.37856,1.57625 c 1.18481,0.29686 2.34861,0.60686 3.49139,0.90109 l -2.02811,8.14395 4.90476,1.23211 2.00709,-8.05464 c 1.33719,0.36254 2.62708,0.69618 3.90384,1.01143 l -1.9992,8.01785 4.8995,1.2216 2.02811,-8.12557 c 8.35412,1.57625 14.6381,0.94313 17.28357,-6.61499 2.13056,-6.08432 -0.10771,-9.5941 -4.50282,-11.88229 3.19979,-0.73821 5.61145,-2.84513 6.25508,-7.19557 z m -11.19399,15.69943 c -1.51583,6.08433 -11.76145,2.79522 -15.08208,1.97032 l 2.69013,-10.7868 c 3.32326,0.83016 13.97345,2.47208 12.39195,8.81648 z m 1.51582,-15.78613 c -1.38184,5.53526 -9.90935,2.72166 -12.67566,2.03336 l 2.44055,-9.78325 c 2.76369,0.6883 11.67213,1.97557 10.23511,7.74989 z"
         fill="#ffffff"
         id="path3117"
         style="stroke-width:0.262708"
         inkscape:label="BC" /><path
         d="m -74.562818,110.68359 -25.219983,28.10977 14.18624,3.94062 -9.982909,21.80478 27.584355,-27.84707 -16.550613,-4.46603 z"
         fill="#ffba00"
         id="path3119"
         style="stroke-width:0.262708"
         inkscape:label="LN" /></g></g><metadata
     id="metadata3013"><rdf:RDF><cc:Work
         rdf:about=""><dc:title>Politische Aktion</dc:title></cc:Work></rdf:RDF></metadata></svg>
