<?xml version="1.0" encoding="UTF-8" standalone="no"?>
<svg
   width="2500"
   height="2363"
   viewBox="0 0 223.938 211.665"
   version="1.1"
   id="svg14"
   sodipodi:docname="round.svg"
   inkscape:version="1.1.1 (3bf5ae0d25, 2021-09-20)"
   inkscape:export-filename="/home/vv01f/Dropbox/btcdd/dresden-orange.png"
   inkscape:export-xdpi="19.200001"
   inkscape:export-ydpi="19.200001"
   xmlns:inkscape="http://www.inkscape.org/namespaces/inkscape"
   xmlns:sodipodi="http://sodipodi.sourceforge.net/DTD/sodipodi-0.dtd"
   xmlns="http://www.w3.org/2000/svg"
   xmlns:svg="http://www.w3.org/2000/svg"
   xmlns:rdf="http://www.w3.org/1999/02/22-rdf-syntax-ns#"
   xmlns:cc="http://creativecommons.org/ns#"
   xmlns:dc="http://purl.org/dc/elements/1.1/">
  <metadata
     id="metadata20">
    <rdf:RDF>
      <cc:Work
         rdf:about="">
        <dc:format>image/svg+xml</dc:format>
        <dc:type
           rdf:resource="http://purl.org/dc/dcmitype/StillImage" />
      </cc:Work>
    </rdf:RDF>
  </metadata>
  <defs
     id="defs18" />
  <sodipodi:namedview
     pagecolor="#ff8900"
     bordercolor="#666666"
     borderopacity="1"
     objecttolerance="10"
     gridtolerance="10"
     guidetolerance="10"
     inkscape:pageopacity="1"
     inkscape:pageshadow="2"
     inkscape:window-width="1366"
     inkscape:window-height="694"
     id="namedview16"
     showgrid="false"
     inkscape:zoom="0.073868665"
     inkscape:cx="-1902.0244"
     inkscape:cy="1651.5799"
     inkscape:window-x="0"
     inkscape:window-y="0"
     inkscape:window-maximized="1"
     inkscape:current-layer="svg14"
     inkscape:pagecheckerboard="true"
     inkscape:showpageshadow="false" />
  <g
     id="g105312"
     transform="matrix(0.85086262,0,0,0.85086262,241.78719,23.218281)">
    <path
       id="path104957"
       style="font-style:normal;font-variant:normal;font-weight:normal;font-stretch:normal;font-size:29.8584px;line-height:1.25;font-family:cour;-inkscape-font-specification:cour;letter-spacing:-0.537451px;fill:#ffae00;fill-opacity:1;stroke:none;stroke-width:0.0895752"
       d="m -97.013672,145.78516 c 3.186995,4.86205 6.392862,9.71204 9.519531,14.61328 -5.791072,-3.13599 -11.558783,-6.30844 -17.330079,-9.48047 -1.34961,0.88281 -2.69922,1.76562 -4.04883,2.64844 3.65104,5.56836 7.30209,11.13671 10.953128,16.70507 0.985026,-0.64453 1.970052,-1.28906 2.955078,-1.93359 -3.186995,-4.86205 -6.392866,-9.71205 -9.519536,-14.61328 5.791077,3.13599 11.558788,6.30844 17.330083,9.48047 1.350261,-0.88281 2.700521,-1.76563 4.050781,-2.64844 -3.651692,-5.56836 -7.303385,-11.13672 -10.955078,-16.70508 -0.985026,0.64453 -1.970052,1.28907 -2.955078,1.9336 z m -124.351558,15.01562 c 3.86082,2.35585 7.49793,5.41027 11.98232,6.32702 3.33701,0.51076 6.81464,-1.12737 8.6739,-3.92156 2.12383,-2.75622 3.05282,-6.7388 1.37628,-9.93829 -1.4981,-3.07137 -4.57843,-4.87158 -7.28984,-6.71793 -1.30718,-0.84412 -2.61725,-1.68628 -3.92626,-2.52854 -3.60547,5.5931 -7.21094,11.1862 -10.8164,16.7793 z m 12.85546,-12.55469 c 2.30659,1.47706 4.99625,2.95898 5.98354,5.68971 1.03102,2.82451 -0.32599,5.91863 -2.28945,7.98402 -2.06344,2.3557 -5.82242,2.72526 -8.44547,1.11139 -1.24486,-0.64979 -2.38739,-1.47239 -3.57479,-2.21871 2.72622,-4.22074 5.44957,-8.44333 8.17578,-12.66406 l 0.0839,0.0545 z m 84.9668,11.2793 c 2.5,6.17383 5,12.34766 7.5,18.52149 4.22852,-1.71224 8.45703,-3.42448 12.68555,-5.13672 -0.30794,-0.75912 -0.61589,-1.51823 -0.92383,-2.27735 -3.04697,1.23285 -6.0932,2.46751 -9.14063,3.69922 -0.84378,-2.09426 -1.69137,-4.18699 -2.53515,-6.28125 2.77006,-1.11911 5.53897,-2.2411 8.30859,-3.36133 -0.30729,-0.75911 -0.61458,-1.51823 -0.92187,-2.27734 -2.77223,1.12216 -5.5437,2.24621 -8.31641,3.36719 -0.72732,-1.80647 -1.45823,-3.6115 -2.18555,-5.41797 2.94651,-1.19071 5.89184,-2.38434 8.83789,-3.57617 -0.30729,-0.75847 -0.61458,-1.51693 -0.92187,-2.27539 -4.12891,1.67187 -8.25781,3.34375 -12.38672,5.01562 z m -77.20312,13.70703 c 1.18489,0.4668 2.36979,0.9336 3.55468,1.40039 1.00453,-2.55274 2.00931,-5.10539 3.01368,-7.6582 1.762,0.70397 3.99188,1.21532 4.83203,3.13281 0.89402,2.5747 0.63333,5.36869 1.02148,8.00391 1.20719,0.4958 2.45581,0.97451 3.6836,1.46094 -0.31969,-2.90133 -0.17207,-5.91435 -1.18827,-8.69292 -0.81227,-1.42778 -2.39778,-2.11496 -3.71408,-2.98287 2.15424,-0.0315 4.53597,0.62484 6.49609,-0.57226 1.82579,-1.42339 2.85149,-4.14281 1.78321,-6.29688 -1.32432,-2.3073 -4.05257,-3.1028 -6.3481,-4.0857 -1.93603,-0.77727 -3.88058,-1.533 -5.82182,-2.29711 -2.4375,6.19596 -4.875,12.39193 -7.3125,18.58789 z m 10.19921,-15.0039 c 1.88632,0.89259 4.33134,1.19761 5.47657,3.15625 0.81995,1.97278 -0.31296,4.6051 -2.38672,5.21679 -1.90099,0.40893 -3.60571,-0.78716 -5.35156,-1.30859 -0.56671,-0.25164 -0.51607,-0.97102 -0.16709,-1.3756 0.75338,-1.91851 1.5086,-3.8363 2.26084,-5.75526 l 0.093,0.0368 z m 10.79297,22.50195 c 4.47852,0.86523 8.95704,1.73047 13.43555,2.5957 0.1556,-0.80273 0.3112,-1.60547 0.4668,-2.4082 -3.22596,-0.62152 -6.45157,-1.24482 -9.67774,-1.86524 0.42395,-2.21767 0.85145,-4.43467 1.27539,-6.65234 2.93644,0.56387 5.87236,1.13041 8.8086,1.69531 0.1556,-0.80208 0.3112,-1.60416 0.46679,-2.40625 -2.93493,-0.56553 -5.86953,-1.13285 -8.80468,-1.69726 0.36538,-1.91298 0.73422,-3.8253 1.09961,-5.73828 3.12199,0.60024 6.24344,1.20334 9.36523,1.80468 0.1556,-0.80273 0.3112,-1.60547 0.4668,-2.4082 -4.37175,-0.84505 -8.74349,-1.6901 -13.11524,-2.53516 -1.26237,6.53842 -2.52474,13.07683 -3.78711,19.61524 z m 46.80664,-18.53125 c -3.51646,0.23764 -6.93587,1.05621 -10.39453,1.71094 1.28321,6.52929 2.56641,13.05859 3.84961,19.58789 4.3008,-0.94809 8.88486,-1.2928 12.75507,-3.57364 2.98273,-1.94544 4.46566,-5.78317 3.7629,-9.24896 -0.43038,-3.45038 -2.62011,-6.88016 -6.05375,-7.95592 -1.22837,-0.42749 -2.60148,-0.56878 -3.9193,-0.52031 z m -21.51757,1.41211 c -2.36949,0.0438 -5.10342,1.07271 -5.95704,3.48242 -0.76334,2.0741 -0.54351,4.69336 1.25563,6.17154 2.50317,1.98613 5.95461,1.60622 8.68969,3.06869 1.31054,0.79607 1.79078,2.63254 0.98766,3.95021 -0.6417,1.21233 -2.0487,1.69849 -3.34503,1.74474 -2.71828,0.30028 -5.42206,-0.52762 -7.85357,-1.68323 -0.0385,0.89543 0.005,1.79176 -0.0176,2.6875 3.71124,1.24713 7.79581,1.9067 11.62891,0.73828 2.1004,-0.51418 3.54225,-2.72072 3.56445,-4.85937 0.25421,-1.90466 -0.46256,-4.28114 -2.41152,-5.12425 -2.61227,-1.47644 -5.823,-1.18032 -8.45762,-2.58278 -1.34028,-0.89448 -1.53624,-2.95776 -0.42969,-4.11524 1.14749,-1.23133 2.98424,-1.1861 4.53711,-1.21679 1.86255,0.0687 3.68228,0.56629 5.41602,1.22656 0.005,-0.86393 0.009,-1.72787 0.0137,-2.5918 -2.50333,-0.61646 -5.05328,-0.97873 -7.62109,-0.89648 z m 20.76562,1.15429 c 2.9983,-0.0515 5.83301,2.19618 6.45954,5.13177 0.86776,2.66517 0.54218,6.00161 -1.70301,7.90793 -1.85174,1.62766 -4.38953,2.09049 -6.75269,2.40535 -0.87844,-0.1169 -0.70364,-1.21509 -0.90988,-1.84004 -0.84009,-4.26348 -1.6788,-8.52724 -2.51974,-12.79055 1.79824,-0.33225 3.58545,-0.81121 5.42578,-0.81446 z" />
    <path
       id="path35307"
       style="stroke-width:1.69276"
       d="M -35.294607,138.41311 A 135.42078,135.42078 0 0 1 -152.57244,206.1235 135.42078,135.42078 0 0 1 -269.85027,138.41311 l 117.27783,-67.710389 z" />
    <path
       id="path718"
       style="fill:none;fill-rule:evenodd;stroke:none;stroke-width:1.69276;stroke-miterlimit:4;stroke-dasharray:none;stroke-opacity:1"
       d="m -223.32746,162.64207 c 20.68501,15.39339 46.43503,24.06161 72.26526,23.59226 27.51358,-0.48425 54.879104,-10.65042 75.671756,-28.75577 24.772535,-21.59295 39.554524,-54.21018 39.284949,-87.076965 -0.02116,-16.79522 -3.061831,-33.783335 -10.3898,-48.984934 -5.984083,-12.391025 -14.160684,-23.7022996 -23.86945,-33.443938 -11.738514,-11.753141 -25.932975,-21.10601 -41.528425,-26.877064 -14.70203,-5.514367 -30.55073,-7.936648 -46.2301,-7.017667 -25.25636,1.271328 -50.17886,10.719057 -69.46895,27.172231 -24.89671,21.1628003 -40.52441,53.073089 -41.23792,85.803217 -0.68666,29.493868 10.03752,59.19829 29.82899,81.14807 4.79024,5.26076 10.10974,10.01491 15.67369,14.44056 z" />
    <path
       style="fill:#000000;stroke-width:0.0895752"
       id="path36"
       d="" />
    <path
       id="path39020"
       style="fill-rule:evenodd;stroke-width:0.0895752"
       d="m -69.846281,70.955673 a 82.584816,82.584816 0 0 1 -82.584819,82.584817 82.584816,82.584816 0 0 1 -82.58481,-82.584817 82.584816,82.584816 0 0 1 82.58481,-82.584816 82.584816,82.584816 0 0 1 82.584819,82.584816 z" />
    <path
       id="path38997"
       style="fill:#ffae00;fill-opacity:1;fill-rule:evenodd;stroke-width:0.0895752"
       d="m -153.52666,-6.390625 c -21.83762,0.3497094 -43.4243,10.3436909 -57.61537,27.020634 -11.67049,13.694225 -18.44011,31.475707 -18.62253,49.478194 -0.16436,18.109497 6.1902,36.246377 17.78634,50.198457 12.34746,14.91716 30.54795,25.00879 49.80609,27.36348 18.81054,2.36677 38.49475,-2.33445 54.01522,-13.31734 14.701592,-10.26636 25.723341,-25.7409 30.346174,-43.101298 4.613563,-17.035599 3.313959,-35.654771 -3.970044,-51.77877 C -89.275581,22.648786 -102.875,8.6513243 -119.60998,0.92129851 -130.17313,-4.0090729 -141.85272,-6.560692 -153.52666,-6.390625 Z" />
    <path
       id="path38974"
       style="fill:#000000;fill-rule:evenodd;stroke-width:0.0895752"
       d="m -154.11651,-4.0332031 c -19.84622,0.542052 -39.39492,9.237302 -53.03162,23.7321491 -12.41295,13.243587 -19.70112,31.176543 -20.23156,49.278029 -0.62151,21.594022 8.67154,43.342415 24.80331,57.720495 13.99427,12.53239 32.80495,19.71038 51.62526,19.2044 18.11153,-0.37561 36.11255,-7.43802 49.37842,-19.86306 13.214238,-12.21563 21.935741,-29.295437 23.707174,-47.229916 C -76.06505,61.398181 -80.404931,43.315913 -90.378105,28.857767 -99.72498,15.072669 -113.77771,4.4447489 -129.71026,-0.48828125 -137.59158,-2.9829734 -145.85024,-4.1841364 -154.11651,-4.0332031 Z" />
    <g
       id="g431"
       transform="matrix(2.0848325,0,0,2.0848325,73.737672,-138.653)"
       style="fill:#ffae00;fill-opacity:1">
      <path
         style="color:#000000;font-style:normal;font-variant:normal;font-weight:normal;font-stretch:normal;font-size:medium;line-height:normal;font-family:sans-serif;font-variant-ligatures:normal;font-variant-position:normal;font-variant-caps:normal;font-variant-numeric:normal;font-variant-alternates:normal;font-variant-east-asian:normal;font-feature-settings:normal;font-variation-settings:normal;text-indent:0;text-align:start;text-decoration:none;text-decoration-line:none;text-decoration-style:solid;text-decoration-color:#000000;letter-spacing:normal;word-spacing:normal;text-transform:none;writing-mode:lr-tb;direction:ltr;text-orientation:mixed;dominant-baseline:auto;baseline-shift:baseline;text-anchor:start;white-space:normal;shape-padding:0;shape-margin:0;inline-size:0;clip-rule:nonzero;display:inline;overflow:visible;visibility:visible;opacity:1;isolation:auto;mix-blend-mode:normal;color-interpolation:sRGB;color-interpolation-filters:linearRGB;solid-color:#000000;solid-opacity:1;vector-effect:none;fill:#ffae00;fill-opacity:1;fill-rule:nonzero;stroke:none;stroke-width:0.0895752;stroke-linecap:butt;stroke-linejoin:miter;stroke-miterlimit:4;stroke-dasharray:none;stroke-dashoffset:0;stroke-opacity:1;color-rendering:auto;image-rendering:auto;shape-rendering:auto;text-rendering:auto;enable-background:accumulate;stop-color:#000000;stop-opacity:1"
         d="m -102.79237,116.93061 c 0.0872,-0.0227 0.20808,-0.0212 0.26873,0.003 0.0606,0.0245 -0.0107,0.0431 -0.15846,0.0413 -0.1478,-0.002 -0.19742,-0.0219 -0.11027,-0.0446 z m 1.7915,0 c 0.0872,-0.0227 0.20809,-0.0212 0.26873,0.003 0.0606,0.0245 -0.0107,0.0431 -0.15846,0.0413 -0.1478,-0.002 -0.19742,-0.0219 -0.11027,-0.0446 z"
         id="path423" />
      <path
         style="color:#000000;font-style:normal;font-variant:normal;font-weight:normal;font-stretch:normal;font-size:medium;line-height:normal;font-family:sans-serif;font-variant-ligatures:normal;font-variant-position:normal;font-variant-caps:normal;font-variant-numeric:normal;font-variant-alternates:normal;font-variant-east-asian:normal;font-feature-settings:normal;font-variation-settings:normal;text-indent:0;text-align:start;text-decoration:none;text-decoration-line:none;text-decoration-style:solid;text-decoration-color:#000000;letter-spacing:normal;word-spacing:normal;text-transform:none;writing-mode:lr-tb;direction:ltr;text-orientation:mixed;dominant-baseline:auto;baseline-shift:baseline;text-anchor:start;white-space:normal;shape-padding:0;shape-margin:0;inline-size:0;clip-rule:nonzero;display:inline;overflow:visible;visibility:visible;opacity:1;isolation:auto;mix-blend-mode:normal;color-interpolation:sRGB;color-interpolation-filters:linearRGB;solid-color:#000000;solid-opacity:1;vector-effect:none;fill:#ffae00;fill-opacity:1;fill-rule:nonzero;stroke:none;stroke-width:0.0895752;stroke-linecap:butt;stroke-linejoin:miter;stroke-miterlimit:4;stroke-dasharray:none;stroke-dashoffset:0;stroke-opacity:1;color-rendering:auto;image-rendering:auto;shape-rendering:auto;text-rendering:auto;enable-background:accumulate;stop-color:#000000;stop-opacity:1"
         d="m -102.11989,116.92698 c 0.21068,-0.0189 0.53315,-0.0186 0.7166,6.3e-4 0.18345,0.0192 0.0111,0.0347 -0.38306,0.0344 -0.39413,-3.5e-4 -0.54423,-0.0161 -0.33354,-0.035 z m -1.60912,-0.0851 c 0.0647,-0.0259 0.14192,-0.0227 0.17168,0.007 0.0298,0.0298 -0.0231,0.0509 -0.11757,0.047 -0.10435,-0.004 -0.12557,-0.0255 -0.0541,-0.0541 z m -6.07432,-5.70544 c 0,-0.0186 0.0705,-0.0891 0.15675,-0.15676 0.14207,-0.11142 0.14524,-0.10825 0.0338,0.0338 -0.11702,0.14921 -0.19057,0.19666 -0.19057,0.12294 z m 1.16447,-1.0749 c 0,-0.0186 0.0705,-0.0891 0.15676,-0.15676 0.14207,-0.11142 0.14524,-0.10825 0.0338,0.0338 -0.11702,0.14921 -0.19058,0.19666 -0.19058,0.12294 z m 1.29884,-1.22024 c 0.0892,-0.0985 0.18229,-0.17915 0.20692,-0.17915 0.0246,0 -0.0282,0.0806 -0.11734,0.17915 -0.0892,0.0985 -0.18228,0.17915 -0.20692,0.17915 -0.0246,0 0.0282,-0.0806 0.11734,-0.17915 z m 14.749269,-0.44787 c 0,-0.12317 0.02033,-0.17355 0.04518,-0.11197 0.02485,0.0616 0.02485,0.16235 0,0.22394 -0.02485,0.0616 -0.04518,0.0112 -0.04518,-0.11197 z m -27.709679,-0.32992 c 0.0647,-0.0259 0.14192,-0.0227 0.17169,0.007 0.0298,0.0298 -0.0231,0.0509 -0.11757,0.047 -0.10435,-0.004 -0.12557,-0.0255 -0.0541,-0.0541 z m 14.0801,-0.24135 c 0,-0.0186 0.0705,-0.0891 0.15676,-0.15676 0.14207,-0.11142 0.14524,-0.10825 0.0338,0.0338 -0.11702,0.14921 -0.19058,0.19666 -0.19058,0.12294 z m 13.622508,-0.55589 c 0.0043,-0.10435 0.02552,-0.12557 0.05412,-0.0541 0.02588,0.0647 0.02269,0.14193 -0.0071,0.17169 -0.02977,0.0298 -0.05094,-0.0231 -0.04705,-0.11757 z m -12.458028,-0.51902 c 0,-0.0186 0.0705,-0.0891 0.15676,-0.15675 0.14207,-0.11142 0.14524,-0.10825 0.0338,0.0338 -0.11702,0.14921 -0.19058,0.19666 -0.19058,0.12293 z m 1.25406,-1.16447 c 0,-0.0186 0.0705,-0.0891 0.15675,-0.15676 0.14207,-0.11142 0.14524,-0.10825 0.0338,0.0338 -0.11702,0.14921 -0.19057,0.19666 -0.19057,0.12294 z m 1.16447,-1.07491 c 0,-0.0186 0.0705,-0.0891 0.15676,-0.15675 0.14207,-0.11142 0.14524,-0.10825 0.0338,0.0338 -0.11702,0.14921 -0.19058,0.19666 -0.19058,0.12293 z m 1.25406,-1.16447 c 0,-0.0186 0.0705,-0.0891 0.15675,-0.15676 0.14207,-0.11142 0.14524,-0.10825 0.0338,0.0338 -0.11702,0.14921 -0.19057,0.19666 -0.19057,0.12294 z m 1.16447,-1.07491 c 0,-0.0186 0.0705,-0.0891 0.15676,-0.15675 0.142072,-0.11142 0.14524,-0.10825 0.0338,0.0338 -0.11702,0.14921 -0.19058,0.19666 -0.19058,0.12293 z m -12.9884,-1.88108 c 0,-0.0186 0.0705,-0.0891 0.15676,-0.15675 0.14207,-0.11142 0.14524,-0.10825 0.0338,0.0338 -0.11702,0.14921 -0.19058,0.19666 -0.19058,0.12293 z m 19.572181,-0.2349 c 0.08917,-0.0985 0.182284,-0.179152 0.206917,-0.179152 0.02463,0 -0.02817,0.08062 -0.117342,0.179152 -0.08917,0.0985 -0.182284,0.17915 -0.206917,0.17915 -0.02463,0 0.02817,-0.0806 0.117342,-0.17915 z m -18.318131,-0.929573 c 0,-0.0186 0.0705,-0.08914 0.15676,-0.156757 0.14207,-0.11142 0.14524,-0.108252 0.0338,0.03382 -0.11702,0.14921 -0.19058,0.196661 -0.19058,0.122937 z m 1.16448,-1.074903 c 0,-0.0186 0.0705,-0.08914 0.15676,-0.156756 0.14207,-0.11142 0.14524,-0.108252 0.0338,0.03382 -0.11702,0.14921 -0.19058,0.19666 -0.19058,0.122936 z m 1.29884,-1.220233 c 0.0892,-0.09853 0.18228,-0.17915 0.20692,-0.17915 0.0246,0 -0.0282,0.08062 -0.11734,0.17915 -0.0892,0.09853 -0.18229,0.179151 -0.20692,0.179151 -0.0246,0 0.0282,-0.08062 0.11734,-0.179151 z m 1.11969,-1.019147 c 0,-0.0186 0.0705,-0.08914 0.15676,-0.156756 0.14207,-0.11142 0.14524,-0.108252 0.0338,0.03382 -0.11702,0.149209 -0.19058,0.19666 -0.19058,0.122936 z m 1.16448,-1.074902 c 0,-0.0186 0.0705,-0.08914 0.15675,-0.156757 0.14208,-0.11142 0.14524,-0.108252 0.0338,0.03382 -0.11701,0.14921 -0.19057,0.196661 -0.19057,0.122937 z m 1.25405,-1.164478 c 0,-0.0186 0.0705,-0.08914 0.15676,-0.156757 0.14207,-0.111419 0.14524,-0.108251 0.0338,0.03382 -0.11702,0.14921 -0.19058,0.196661 -0.19058,0.122937 z m 1.16448,-1.074902 c 0,-0.0186 0.0705,-0.08914 0.15675,-0.156757 0.14208,-0.11142 0.14524,-0.108252 0.0338,0.03382 -0.11701,0.14921 -0.19057,0.196661 -0.19057,0.122937 z m 1.25405,-1.164478 c 0,-0.0186 0.0705,-0.08914 0.15676,-0.156757 0.14207,-0.11142 0.14524,-0.108251 0.0338,0.03382 -0.11702,0.14921 -0.19058,0.196661 -0.19058,0.122937 z"
         id="path425" />
      <path
         style="color:#000000;font-style:normal;font-variant:normal;font-weight:normal;font-stretch:normal;font-size:medium;line-height:normal;font-family:sans-serif;font-variant-ligatures:normal;font-variant-position:normal;font-variant-caps:normal;font-variant-numeric:normal;font-variant-alternates:normal;font-variant-east-asian:normal;font-feature-settings:normal;font-variation-settings:normal;text-indent:0;text-align:start;text-decoration:none;text-decoration-line:none;text-decoration-style:solid;text-decoration-color:#000000;letter-spacing:normal;word-spacing:normal;text-transform:none;writing-mode:lr-tb;direction:ltr;text-orientation:mixed;dominant-baseline:auto;baseline-shift:baseline;text-anchor:start;white-space:normal;shape-padding:0;shape-margin:0;inline-size:0;clip-rule:nonzero;display:inline;overflow:visible;visibility:visible;opacity:1;isolation:auto;mix-blend-mode:normal;color-interpolation:sRGB;color-interpolation-filters:linearRGB;solid-color:#000000;solid-opacity:1;vector-effect:none;fill:#ffae00;fill-opacity:1;fill-rule:nonzero;stroke:none;stroke-width:0.0895752;stroke-linecap:butt;stroke-linejoin:miter;stroke-miterlimit:4;stroke-dasharray:none;stroke-dashoffset:0;stroke-opacity:1;color-rendering:auto;image-rendering:auto;shape-rendering:auto;text-rendering:auto;enable-background:accumulate;stop-color:#000000;stop-opacity:1"
         d="m -110.01804,111.2748 c -0.0254,-0.041 0.0108,-0.0746 0.0803,-0.0746 0.0696,0 0.10573,0.0336 0.0804,0.0746 -0.0254,0.0411 -0.0615,0.0747 -0.0804,0.0747 -0.0188,0 -0.055,-0.0336 -0.0803,-0.0747 z m 0.84173,-0.66998 c 0,-0.0154 0.13101,-0.14642 0.29112,-0.29112 l 0.29112,-0.26309 -0.26309,0.29112 c -0.24524,0.27136 -0.31915,0.33229 -0.31915,0.26309 z m 1.16448,-1.0749 c 0,-0.0154 0.131,-0.14642 0.29112,-0.29112 l 0.29112,-0.26309 -0.26309,0.29112 c -0.24524,0.27136 -0.31915,0.33229 -0.31915,0.26309 z m 1.25405,-1.16448 c 0,-0.0154 0.13101,-0.14642 0.29112,-0.29112 l 0.29112,-0.26309 -0.26309,0.29112 c -0.24524,0.27136 -0.31915,0.33229 -0.31915,0.26309 z m 1.16448,-1.0749 c 0,-0.0154 0.131,-0.14642 0.29112,-0.29112 l 0.29112,-0.26309 -0.26309,0.29112 c -0.24524,0.27136 -0.31915,0.33229 -0.31915,0.26309 z m 1.25405,-1.16448 c 0,-0.0154 0.13101,-0.14642 0.29112,-0.29112 l 0.29112,-0.26309 -0.26309,0.29112 c -0.24523,0.27136 -0.31915,0.33229 -0.31915,0.26309 z m 1.16448,-1.0749 c 0,-0.0154 0.13101,-0.14642 0.29112,-0.29112 l 0.29112,-0.26309 -0.26309,0.29112 c -0.24524,0.27136 -0.31915,0.33229 -0.31915,0.26309 z m 1.4332,-1.36039 c 0.16713,-0.17243 0.32403,-0.31351 0.34866,-0.31351 0.0246,0 -0.0919,0.14108 -0.25908,0.31351 -0.16713,0.17243 -0.32402,0.31351 -0.34866,0.31351 -0.0246,0 0.092,-0.14108 0.25908,-0.31351 z m 7.385745,-0.15676 -0.354087,-0.38069 0.380695,0.35408 c 0.354042,0.3293 0.421857,0.40731 0.354086,0.40731 -0.01463,0 -0.185947,-0.17132 -0.380694,-0.3807 z m -6.400415,-0.72223 c 0,-0.0154 0.13101,-0.14642 0.29112,-0.29112 l 0.29112,-0.26309 -0.26309,0.29112 c -0.24524,0.27136 -0.31915,0.33229 -0.31915,0.26309 z m 1.16448,-1.07491 c 0,-0.0154 0.131004,-0.14642 0.291119,-0.29112 l 0.29112,-0.26309 -0.263091,0.29112 c -0.245237,0.27137 -0.319148,0.3323 -0.319148,0.26309 z m -14.36877,-0.58597 c -0.026,-0.0421 0.0623,-0.17311 0.19625,-0.29112 l 0.24358,-0.21457 -0.20237,0.23059 c -0.1113,0.12682 -0.17512,0.25782 -0.14183,0.29112 0.0333,0.0333 0.0361,0.0605 0.006,0.0605 -0.0299,0 -0.0757,-0.0345 -0.10174,-0.0766 z m 1.29079,-1.311865 c 0.16713,-0.172432 0.32402,-0.313513 0.34866,-0.313513 0.0246,0 -0.092,0.141081 -0.25908,0.313513 -0.16713,0.172435 -0.32403,0.313515 -0.34866,0.313515 -0.0246,0 0.0919,-0.14108 0.25908,-0.313515 z m 0.98533,-0.878993 c 0,-0.01542 0.131,-0.14642 0.29112,-0.291119 l 0.29112,-0.263091 -0.26309,0.29112 c -0.24524,0.271364 -0.31915,0.332292 -0.31915,0.26309 z m 1.16448,-1.074902 c 0,-0.01542 0.131,-0.14642 0.29111,-0.29112 l 0.29112,-0.26309 -0.26309,0.291119 c -0.24523,0.271365 -0.31914,0.332293 -0.31914,0.263091 z m 1.25405,-1.164478 c 0,-0.01542 0.131,-0.14642 0.29112,-0.291119 l 0.29112,-0.263091 -0.26309,0.29112 c -0.24524,0.271364 -0.31915,0.332292 -0.31915,0.26309 z m 1.16448,-1.074902 c 0,-0.01542 0.131,-0.14642 0.29111,-0.29112 l 0.29112,-0.26309 -0.26309,0.291119 c -0.24523,0.271365 -0.31914,0.332293 -0.31914,0.263091 z m 1.4332,-1.360387 c 0.16713,-0.172432 0.32402,-0.313513 0.34866,-0.313513 0.0246,0 -0.092,0.141081 -0.25909,0.313513 -0.16712,0.172432 -0.32402,0.313513 -0.34865,0.313513 -0.0246,0 0.0919,-0.141081 0.25908,-0.313513 z m 0.98533,-0.878993 c 0,-0.01542 0.131,-0.14642 0.29112,-0.29112 l 0.29111,-0.26309 -0.26309,0.291119 c -0.24523,0.271365 -0.31914,0.332293 -0.31914,0.263091 z m 1.16447,-1.074903 c 0,-0.01542 0.13101,-0.14642 0.29112,-0.291119 l 0.29112,-0.263091 -0.26309,0.29112 c -0.24524,0.271364 -0.31915,0.332292 -0.31915,0.26309 z m 1.40832,-1.320114 c 0.10949,-0.115209 0.21639,-0.191555 0.23756,-0.169659 0.0212,0.0219 -0.0684,0.116158 -0.19905,0.209471 l -0.23756,0.16966 z m 9.425461,-0.510542 -0.308691,-0.335907 0.335907,0.308691 c 0.312655,0.287322 0.377093,0.363123 0.308691,0.363123 -0.01497,0 -0.166127,-0.151159 -0.335907,-0.335907 z"
         id="path427" />
      <path
         style="color:#000000;font-style:normal;font-variant:normal;font-weight:normal;font-stretch:normal;font-size:medium;line-height:normal;font-family:sans-serif;font-variant-ligatures:normal;font-variant-position:normal;font-variant-caps:normal;font-variant-numeric:normal;font-variant-alternates:normal;font-variant-east-asian:normal;font-feature-settings:normal;font-variation-settings:normal;text-indent:0;text-align:start;text-decoration:none;text-decoration-line:none;text-decoration-style:solid;text-decoration-color:#000000;letter-spacing:normal;word-spacing:normal;text-transform:none;writing-mode:lr-tb;direction:ltr;text-orientation:mixed;dominant-baseline:auto;baseline-shift:baseline;text-anchor:start;white-space:normal;shape-padding:0;shape-margin:0;inline-size:0;clip-rule:nonzero;display:inline;overflow:visible;visibility:visible;opacity:1;isolation:auto;mix-blend-mode:normal;color-interpolation:sRGB;color-interpolation-filters:linearRGB;solid-color:#000000;solid-opacity:1;vector-effect:none;fill:#ffae00;fill-opacity:1;fill-rule:nonzero;stroke:none;stroke-width:0.0895752;stroke-linecap:butt;stroke-linejoin:miter;stroke-miterlimit:4;stroke-dasharray:none;stroke-dashoffset:0;stroke-opacity:1;color-rendering:auto;image-rendering:auto;shape-rendering:auto;text-rendering:auto;enable-background:accumulate;stop-color:#000000;stop-opacity:1"
         d="m -110.45835,122.27882 c -0.92682,-0.23672 -1.70428,-0.44956 -1.7277,-0.47298 -0.0234,-0.0234 0.30157,-1.41739 0.72219,-3.0977 0.42063,-1.68033 0.76477,-3.08998 0.76477,-3.13257 0,-0.0704 -2.7703,-0.82709 -3.01551,-0.8237 -0.0625,8.9e-4 -0.4084,1.2431 -0.86202,3.09537 -0.41673,1.70166 -0.77741,3.11365 -0.80152,3.13776 -0.0241,0.0241 -0.88911,-0.16653 -1.92224,-0.42363 l -1.87842,-0.46745 0.79533,-3.17753 c 0.57529,-2.29838 0.76631,-3.19547 0.69041,-3.24238 -0.0577,-0.0357 -1.76262,-0.47836 -3.78868,-0.98375 -2.02606,-0.5054 -3.71975,-0.95108 -3.76375,-0.99041 -0.0451,-0.0404 0.32207,-1.00053 0.84293,-2.204 0.50762,-1.17287 0.92759,-2.14025 0.93327,-2.14972 0.006,-0.009 0.7147,0.16175 1.5756,0.38051 1.1324,0.28775 1.66017,0.38289 1.90842,0.34404 0.39125,-0.0612 0.8858,-0.45332 1.0329,-0.81888 0.21425,-0.53246 4.40155,-17.517302 4.40155,-17.85391 0,-0.692457 -0.42841,-1.362252 -1.08852,-1.70184 -0.17992,-0.09256 -1.00625,-0.336337 -1.83629,-0.541729 -0.83004,-0.20539 -1.54129,-0.401965 -1.58056,-0.436832 -0.0635,-0.05639 0.84444,-3.89447 0.94511,-3.995139 0.0223,-0.02232 1.76378,0.387377 3.86989,0.910447 2.10611,0.523069 3.8599,0.916895 3.89731,0.875169 0.0374,-0.04173 0.40158,-1.426212 0.80927,-3.076635 0.40769,-1.650423 0.77309,-3.036137 0.812,-3.079364 0.0624,-0.06927 3.46024,0.712344 3.67574,0.845533 0.0613,0.03787 -1.09575,5.070676 -1.39905,6.085565 -0.032,0.106971 0.27064,0.205841 1.48435,0.484971 0.90531,0.208205 1.55457,0.317351 1.59854,0.268726 0.0407,-0.04503 0.40696,-1.422152 0.81386,-3.060258 0.40691,-1.638107 0.77671,-2.978376 0.82178,-2.978376 0.0894,0 3.689001,0.896487 3.718645,0.92613 0.01,0.01 -0.337978,1.441062 -0.773286,3.180137 -0.536049,2.141541 -0.758281,3.173624 -0.68863,3.198113 1.624585,0.571213 3.323905,1.372891 4.386363,2.069326 0.353711,0.231856 1.009965,0.788829 1.458342,1.237717 0.683371,0.684153 0.882906,0.953254 1.233645,1.663753 0.657961,1.332843 0.806445,2.412029 0.549683,3.995129 -0.437099,2.694987 -1.789773,4.447257 -4.057934,5.256687 l -0.83235,0.29704 0.787562,0.47728 c 1.094362,0.66322 2.286499,1.874 2.736944,2.77974 0.470275,0.94562 0.631235,1.65735 0.627991,2.77684 -0.0076,2.63601 -1.364111,5.75038 -3.144053,7.21856 -1.056073,0.8711 -2.388171,1.44884 -3.91208,1.69669 -1.654522,0.2691 -4.924352,0.10029 -6.999042,-0.36132 -0.18178,-0.0404 -0.23093,0.11621 -0.98405,3.13649 -0.71876,2.88244 -0.80956,3.1783 -0.97315,3.17092 -0.0992,-0.004 -0.93874,-0.20183 -1.86556,-0.43854 z m 6.07351,-16.07858 c 3.03482,-2.80743 5.480432,-5.1169 5.434685,-5.13215 -0.04575,-0.0152 -1.361015,-0.30477 -2.922805,-0.64338 -1.5618,-0.33861 -2.85168,-0.62906 -2.8664,-0.64545 -0.0147,-0.01639 0.40585,-2.025087 0.93461,-4.463772 0.52876,-2.438685 0.94928,-4.448763 0.9345,-4.466838 -0.0148,-0.01808 -1.38931,1.228289 -3.0545,2.769701 -1.66519,1.541411 -4.16453,3.853605 -5.55408,5.138208 -1.38956,1.284601 -2.49805,2.360111 -2.46332,2.390021 0.0347,0.0299 1.35875,0.33041 2.94226,0.66778 1.7359,0.36984 2.86629,0.65075 2.84682,0.70746 -0.0178,0.0517 -0.43855,1.98856 -0.93508,4.30408 -0.49654,2.31552 -0.92527,4.28535 -0.95275,4.37739 -0.0288,0.0966 -0.0102,0.15341 0.0441,0.13436 0.0517,-0.0181 2.57712,-2.32998 5.61194,-5.13741 z"
         id="path429" />
    </g>
    <path
       style="font-style:normal;font-variant:normal;font-weight:normal;font-stretch:normal;font-size:29.8584px;line-height:1.25;font-family:cour;-inkscape-font-specification:cour;letter-spacing:-0.537451px;fill:#ffae00;fill-opacity:1;stroke:none;stroke-width:0.0895752"
       d="m -132.94727,162.19922 c -3.51646,0.23764 -6.93587,1.05621 -10.39453,1.71094 1.28321,6.52929 2.56641,13.05859 3.84961,19.58789 4.3008,-0.94809 8.88486,-1.2928 12.75507,-3.57364 2.98273,-1.94544 4.46566,-5.78317 3.7629,-9.24896 -0.43038,-3.45038 -2.62011,-6.88016 -6.05375,-7.95592 -1.22837,-0.42749 -2.60148,-0.56878 -3.9193,-0.52031 z"
       id="path104991" />
    <path
       style="font-style:normal;font-variant:normal;font-weight:normal;font-stretch:normal;font-size:29.8584px;line-height:1.25;font-family:cour;-inkscape-font-specification:cour;letter-spacing:-0.537451px;fill:#000000;fill-opacity:1;stroke:none;stroke-width:0.0895752"
       d="m -133.69922,164.76562 c 2.9983,-0.0515 5.83301,2.19618 6.45954,5.13177 0.86776,2.66517 0.54218,6.00161 -1.70301,7.90793 -1.85174,1.62766 -4.38953,2.09049 -6.75269,2.40535 -0.87844,-0.1169 -0.70364,-1.21509 -0.90988,-1.84004 -0.84009,-4.26348 -1.6788,-8.52724 -2.51974,-12.79055 1.79824,-0.33225 3.58545,-0.81121 5.42578,-0.81446 z"
       id="path104995" />
    <path
       style="font-style:normal;font-variant:normal;font-weight:normal;font-stretch:normal;font-size:29.8584px;line-height:1.25;font-family:cour;-inkscape-font-specification:cour;letter-spacing:-0.537451px;fill:#ffae00;fill-opacity:1;stroke:none;stroke-width:0.0895752"
       d="m -154.46484,163.61133 c -2.36949,0.0438 -5.10342,1.07271 -5.95704,3.48242 -0.76334,2.0741 -0.54351,4.69336 1.25563,6.17154 2.50317,1.98613 5.95461,1.60622 8.68969,3.06869 1.31054,0.79607 1.79078,2.63254 0.98766,3.95021 -0.6417,1.21233 -2.0487,1.69849 -3.34503,1.74474 -2.71828,0.30028 -5.42206,-0.52762 -7.85357,-1.68323 -0.0385,0.89543 0.005,1.79176 -0.0176,2.6875 3.71124,1.24713 7.79581,1.9067 11.62891,0.73828 2.1004,-0.51418 3.54225,-2.72072 3.56445,-4.85937 0.25421,-1.90466 -0.46256,-4.28114 -2.41152,-5.12425 -2.61227,-1.47644 -5.823,-1.18032 -8.45762,-2.58278 -1.34028,-0.89448 -1.53624,-2.95776 -0.42969,-4.11524 1.14749,-1.23133 2.98424,-1.1861 4.53711,-1.21679 1.86255,0.0687 3.68228,0.56629 5.41602,1.22656 0.005,-0.86393 0.009,-1.72787 0.0137,-2.5918 -2.50333,-0.61646 -5.05328,-0.97873 -7.62109,-0.89648 z"
       id="path104993" />
    <path
       style="font-style:normal;font-variant:normal;font-weight:normal;font-stretch:normal;font-size:29.8584px;line-height:1.25;font-family:cour;-inkscape-font-specification:cour;letter-spacing:-0.537451px;fill:#ffae00;fill-opacity:1;stroke:none;stroke-width:0.0895752"
       d="m -179.75391,180.73047 c 4.47852,0.86523 8.95704,1.73047 13.43555,2.5957 0.1556,-0.80273 0.3112,-1.60547 0.4668,-2.4082 -3.22596,-0.62152 -6.45157,-1.24482 -9.67774,-1.86524 0.42395,-2.21767 0.85145,-4.43467 1.27539,-6.65234 2.93644,0.56387 5.87236,1.13041 8.8086,1.69531 0.1556,-0.80208 0.3112,-1.60416 0.46679,-2.40625 -2.93493,-0.56553 -5.86953,-1.13285 -8.80468,-1.69726 0.36538,-1.91298 0.73422,-3.8253 1.09961,-5.73828 3.12199,0.60024 6.24344,1.20334 9.36523,1.80468 0.1556,-0.80273 0.3112,-1.60547 0.4668,-2.4082 -4.37175,-0.84505 -8.74349,-1.6901 -13.11524,-2.53516 -1.26237,6.53842 -2.52474,13.07683 -3.78711,19.61524 z"
       id="path104989" />
    <path
       style="font-style:normal;font-variant:normal;font-weight:normal;font-stretch:normal;font-size:29.8584px;line-height:1.25;font-family:cour;-inkscape-font-specification:cour;letter-spacing:-0.537451px;fill:#ffae00;fill-opacity:1;stroke:none;stroke-width:0.0895752"
       d="m -200.74609,173.23242 c 1.18489,0.4668 2.36979,0.9336 3.55468,1.40039 1.00453,-2.55274 2.00931,-5.10539 3.01368,-7.6582 1.762,0.70397 3.99188,1.21532 4.83203,3.13281 0.89402,2.5747 0.63333,5.36869 1.02148,8.00391 1.20719,0.4958 2.45581,0.97451 3.6836,1.46094 -0.31969,-2.90133 -0.17207,-5.91435 -1.18827,-8.69292 -0.81227,-1.42778 -2.39778,-2.11496 -3.71408,-2.98287 2.15424,-0.0315 4.53597,0.62484 6.49609,-0.57226 1.82579,-1.42339 2.85149,-4.14281 1.78321,-6.29688 -1.32432,-2.3073 -4.05257,-3.1028 -6.3481,-4.0857 -1.93603,-0.77727 -3.88058,-1.533 -5.82182,-2.29711 -2.4375,6.19596 -4.875,12.39193 -7.3125,18.58789 z"
       id="path104985" />
    <path
       style="font-style:normal;font-variant:normal;font-weight:normal;font-stretch:normal;font-size:29.8584px;line-height:1.25;font-family:cour;-inkscape-font-specification:cour;letter-spacing:-0.537451px;fill:#000000;fill-opacity:1;stroke:none;stroke-width:0.0895752"
       d="m -190.54688,158.22852 c 1.88632,0.89259 4.33134,1.19761 5.47657,3.15625 0.81995,1.97278 -0.31296,4.6051 -2.38672,5.21679 -1.90099,0.40893 -3.60571,-0.78716 -5.35156,-1.30859 -0.56671,-0.25164 -0.51607,-0.97102 -0.16709,-1.3756 0.75338,-1.91851 1.5086,-3.8363 2.26084,-5.75526 l 0.093,0.0368 z"
       id="path104987" />
    <path
       style="font-style:normal;font-variant:normal;font-weight:normal;font-stretch:normal;font-size:29.8584px;line-height:1.25;font-family:cour;-inkscape-font-specification:cour;letter-spacing:-0.537451px;fill:#ffae00;fill-opacity:1;stroke:none;stroke-width:0.0895752"
       d="m -123.54297,159.52539 c 2.5,6.17383 5,12.34766 7.5,18.52149 4.22852,-1.71224 8.45703,-3.42448 12.68555,-5.13672 -0.30794,-0.75912 -0.61589,-1.51823 -0.92383,-2.27735 -3.04697,1.23285 -6.0932,2.46751 -9.14063,3.69922 -0.84378,-2.09426 -1.69137,-4.18699 -2.53515,-6.28125 2.77006,-1.11911 5.53897,-2.2411 8.30859,-3.36133 -0.30729,-0.75911 -0.61458,-1.51823 -0.92187,-2.27734 -2.77223,1.12216 -5.5437,2.24621 -8.31641,3.36719 -0.72732,-1.80647 -1.45823,-3.6115 -2.18555,-5.41797 2.94651,-1.19071 5.89184,-2.38434 8.83789,-3.57617 -0.30729,-0.75847 -0.61458,-1.51693 -0.92187,-2.27539 -4.12891,1.67187 -8.25781,3.34375 -12.38672,5.01562 z"
       id="path104983" />
    <path
       style="font-style:normal;font-variant:normal;font-weight:normal;font-stretch:normal;font-size:29.8584px;line-height:1.25;font-family:cour;-inkscape-font-specification:cour;letter-spacing:-0.537451px;fill:#ffae00;fill-opacity:1;stroke:none;stroke-width:0.0895752"
       d="m -221.36523,160.80078 c 3.86082,2.35585 7.49793,5.41027 11.98232,6.32702 3.33701,0.51076 6.81464,-1.12737 8.6739,-3.92156 2.12383,-2.75622 3.05282,-6.7388 1.37628,-9.93829 -1.4981,-3.07137 -4.57843,-4.87158 -7.28984,-6.71793 -1.30718,-0.84412 -2.61725,-1.68628 -3.92626,-2.52854 -3.60547,5.5931 -7.21094,11.1862 -10.8164,16.7793 z"
       id="path104979" />
    <path
       style="font-style:normal;font-variant:normal;font-weight:normal;font-stretch:normal;font-size:29.8584px;line-height:1.25;font-family:cour;-inkscape-font-specification:cour;letter-spacing:-0.537451px;fill:#000000;fill-opacity:1;stroke:none;stroke-width:0.0895752"
       d="m -208.50977,148.24609 c 2.30659,1.47706 4.99625,2.95898 5.98354,5.68971 1.03102,2.82451 -0.32599,5.91863 -2.28945,7.98402 -2.06344,2.3557 -5.82242,2.72526 -8.44547,1.11139 -1.24486,-0.64979 -2.38739,-1.47239 -3.57479,-2.21871 2.72622,-4.22074 5.44957,-8.44333 8.17578,-12.66406 l 0.0839,0.0545 z"
       id="path104981" />
    <path
       style="font-style:normal;font-variant:normal;font-weight:normal;font-stretch:normal;font-size:29.8584px;line-height:1.25;font-family:cour;-inkscape-font-specification:cour;letter-spacing:-0.537451px;fill:#ffae00;fill-opacity:1;stroke:none;stroke-width:0.0895752"
       d="m -97.013672,145.78516 c 3.186995,4.86205 6.392862,9.71204 9.519531,14.61328 -5.791072,-3.13599 -11.558783,-6.30844 -17.330079,-9.48047 -1.34961,0.88281 -2.69922,1.76562 -4.04883,2.64844 3.65104,5.56836 7.30209,11.13671 10.953128,16.70507 0.985026,-0.64453 1.970052,-1.28906 2.955078,-1.93359 -3.186995,-4.86205 -6.392866,-9.71205 -9.519536,-14.61328 5.791077,3.13599 11.558788,6.30844 17.330083,9.48047 1.350261,-0.88281 2.700521,-1.76563 4.050781,-2.64844 -3.651692,-5.56836 -7.303385,-11.13672 -10.955078,-16.70508 -0.985026,0.64453 -1.970052,1.28907 -2.955078,1.9336 z"
       id="text22316" />
    <path
       id="path38488"
       style="color:#000000;fill:#ffae00;fill-opacity:1;fill-rule:evenodd;stroke-width:1;-inkscape-stroke:none"
       d="m -71.742914,123.19399 c -5.145532,8.04058 -11.465937,15.33669 -18.711773,21.53794 l 2.182174,2.60065 c 7.51151,-6.41755 14.055823,-13.96405 19.382009,-22.2862 z m -161.694256,0.0228 -2.83842,1.84346 c 5.70872,8.75266 12.8019,16.59285 20.90672,23.18966 l 2.13458,-2.636 c -7.83329,-6.37506 -14.69194,-13.94941 -20.20288,-22.39712 z" />
    <path
       id="path38402"
       style="color:#000000;fill:#ffae00;fill-opacity:1;fill-rule:evenodd;stroke-width:1;-inkscape-stroke:none"
       d="m -66.636078,126.51038 c -5.487096,8.57899 -12.243525,16.3548 -19.982792,22.97131 l 2.179021,2.5968 c 8.001319,-6.8322 14.980692,-14.85807 20.649358,-23.7201 z m -171.907402,0.0226 -2.84245,1.84575 c 6.07231,9.32207 13.61848,17.6802 22.24248,24.71155 l 2.13825,-2.64054 c -8.34977,-6.80958 -15.66087,-14.9016 -21.53828,-23.91676 z" />
    <path
       id="path38113"
       style="color:#000000;fill:#ffae00;fill-opacity:1;fill-rule:evenodd;stroke-width:1;-inkscape-stroke:none"
       d="m -243.62338,129.83183 -2.84226,1.84574 c 4.84343,7.52158 10.58457,14.46299 17.15977,20.56276 2.02712,1.89565 4.12851,3.71143 6.28952,5.45359 l 2.1302,-2.63058 c -2.10101,-1.69293 -4.14353,-3.4575 -6.11316,-5.29962 l -0.002,-0.004 -0.002,-0.002 c -6.36184,-5.90182 -11.92432,-12.6302 -16.62022,-19.92593 z m 182.152047,0.0325 c -5.280474,8.29945 -11.639624,15.90646 -18.959676,22.46151 l -0.0019,0.002 c -0.693122,0.62296 -1.395183,1.23549 -2.105017,1.83838 l 2.175522,2.59278 c 0.738152,-0.62683 1.468362,-1.26371 2.189345,-1.91169 l 0.0019,-0.002 c 7.548985,-6.7604 14.102956,-14.59162 19.544363,-23.13384 z" />
  </g>
</svg>
