<?xml version="1.0" encoding="UTF-8" standalone="no"?>
<svg
   xmlns:dc="http://purl.org/dc/elements/1.1/"
   xmlns:cc="http://creativecommons.org/ns#"
   xmlns:rdf="http://www.w3.org/1999/02/22-rdf-syntax-ns#"
   xmlns:svg="http://www.w3.org/2000/svg"
   xmlns="http://www.w3.org/2000/svg"
   xmlns:sodipodi="http://sodipodi.sourceforge.net/DTD/sodipodi-0.dtd"
   xmlns:inkscape="http://www.inkscape.org/namespaces/inkscape"
   width="2500"
   height="2363"
   viewBox="0 0 223.938 211.665"
   version="1.1"
   id="svg14"
   sodipodi:docname="dresden.svg"
   inkscape:version="1.0.2 (e86c870879, 2021-01-15)"
   inkscape:export-filename="/home/vv01f/Dropbox/btcdd/dresden-orange.png"
   inkscape:export-xdpi="19.200001"
   inkscape:export-ydpi="19.200001">
  <metadata
     id="metadata20">
    <rdf:RDF>
      <cc:Work
         rdf:about="">
        <dc:format>image/svg+xml</dc:format>
        <dc:type
           rdf:resource="http://purl.org/dc/dcmitype/StillImage" />
        <dc:title></dc:title>
      </cc:Work>
    </rdf:RDF>
  </metadata>
  <defs
     id="defs18" />
  <sodipodi:namedview
     pagecolor="#ff8900"
     bordercolor="#666666"
     borderopacity="1"
     objecttolerance="10"
     gridtolerance="10"
     guidetolerance="10"
     inkscape:pageopacity="1"
     inkscape:pageshadow="2"
     inkscape:window-width="1366"
     inkscape:window-height="709"
     id="namedview16"
     showgrid="false"
     inkscape:zoom="0.1487517"
     inkscape:cx="443.6937"
     inkscape:cy="1314.5584"
     inkscape:window-x="0"
     inkscape:window-y="0"
     inkscape:window-maximized="1"
     inkscape:current-layer="svg14"
     inkscape:pagecheckerboard="true"
     inkscape:showpageshadow="false" />
  <path
     id="path2"
     style="stroke-width:0.78317"
     d="m 111.9082,51.743209 c -31.85656,12.125065 -63.712435,24.253507 -95.568356,36.38086 11.028395,22.101861 21.864133,44.455561 36.128338,64.697781 8.086153,11.41205 16.915255,22.55874 28.120757,31.06832 8.391358,6.38101 18.387434,10.98339 28.979601,11.87755 7.76582,0.50175 15.46773,-1.69878 22.4414,-4.97626 10.34212,-4.8201 18.91605,-12.66735 26.38654,-21.15567 13.3233,-15.41387 24.02619,-32.88802 33.62165,-50.80862 5.39958,-10.12715 10.45894,-20.431303 15.57953,-30.703101 C 175.72216,75.988893 143.84702,63.852733 111.9707,51.719772 Z" />
  <path
     style="color:#000000;font-style:normal;font-variant:normal;font-weight:normal;font-stretch:normal;font-size:medium;line-height:normal;font-family:sans-serif;font-variant-ligatures:normal;font-variant-position:normal;font-variant-caps:normal;font-variant-numeric:normal;font-variant-alternates:normal;font-variant-east-asian:normal;font-feature-settings:normal;font-variation-settings:normal;text-indent:0;text-align:start;text-decoration:none;text-decoration-line:none;text-decoration-style:solid;text-decoration-color:#000000;letter-spacing:normal;word-spacing:normal;text-transform:none;writing-mode:lr-tb;direction:ltr;text-orientation:mixed;dominant-baseline:auto;baseline-shift:baseline;text-anchor:start;white-space:normal;shape-padding:0;shape-margin:0;inline-size:0;clip-rule:nonzero;display:inline;overflow:visible;visibility:visible;opacity:1;isolation:auto;mix-blend-mode:normal;color-interpolation:sRGB;color-interpolation-filters:linearRGB;solid-color:#000000;solid-opacity:1;vector-effect:none;fill:#000000;fill-opacity:1;fill-rule:nonzero;stroke:none;stroke-width:0.78317;stroke-linecap:butt;stroke-linejoin:miter;stroke-miterlimit:4;stroke-dasharray:none;stroke-dashoffset:0;stroke-opacity:1;color-rendering:auto;image-rendering:auto;shape-rendering:auto;text-rendering:auto;enable-background:accumulate;stop-color:#000000;stop-opacity:1"
     d="m 111.969,22.947687 c 10.6331,0 27.30991,1.759 43.22001,6.744658 9.09808,2.851522 23.91486,9.80372 27.03736,17.250097 4.81023,11.472654 -8.5663,40.064615 -13.65691,50.573186 -5.68112,11.727182 -12.29577,23.083932 -19.35056,33.466412 -5.07416,7.46909 -10.59315,14.4902 -16.68151,20.83857 -7.06733,7.3712 -14.35237,11.57526 -20.56917,11.50007 -6.2168,0.0799 -13.501849,-4.12573 -20.569173,-11.49614 C 85.311468,145.47538 79.792471,138.45427 74.717531,130.98596 67.663521,120.60269 61.048869,109.24594 55.367756,97.519545 50.277153,87.010973 36.900614,58.419012 41.710842,46.946358 44.83334,39.499197 59.650128,32.547 68.748211,29.696261 84.658305,24.70982 101.3359,22.951603 111.969,22.947687 Z"
     id="path4" />
  <path
     d="M 111.969,156.60657 C 104.33152,156.45698 95.136332,147.42312 86.209764,135.44376 80.49889,127.77965 75.244604,120.31997 70.446906,111.74425 65.797227,103.43169 61.576726,95.234256 57.784618,86.700837 53.94552,78.060909 50.855915,69.689608 49.151737,62.247928 47.652751,55.700629 47.327736,52.259382 48.872929,49.186224 51.590528,43.78157 63.059266,38.18817 75.344066,34.612218 c 13.922409,-4.052904 29.055594,-5.456344 36.624154,-5.29736 7.56855,-0.162117 22.70174,1.24054 36.62415,5.294227 12.2848,3.575953 23.75353,9.169352 26.47114,14.574006 1.54519,3.072375 1.22017,6.513623 -0.27881,13.061705 -1.70418,7.441679 -4.79379,15.812198 -8.6321,24.452909 -3.79211,8.533418 -8.01261,16.730855 -12.66229,25.043425 -4.79692,8.57648 -10.05198,16.03618 -15.76208,23.69949 -8.92656,11.97937 -18.12176,21.01323 -25.75923,21.16595 z"
     fill="none"
     stroke="#fff"
     stroke-width="2.17016"
     stroke-miterlimit="1"
     id="path6"
     style="stroke:#ffae00;stroke-opacity:1" />
  <path
     d="m 146.33684,139.44418 4.23773,-6.05233 15.20368,2.90556 -0.0564,-0.10259 -11.48127,-8.03924 2.70507,-3.8626 15.51616,10.86414 -4.17744,5.96619 -15.53338,-3.07316 11.83682,8.3525 -2.73482,3.90567 z m -10.91269,13.38594 9.65883,-10.72786 2.74501,2.47169 -6.11734,6.79478 2.88129,2.59464 5.6443,-6.26927 2.74501,2.47168 -5.64509,6.26849 2.9596,2.66434 6.11813,-6.79478 2.74501,2.47169 -9.65884,10.72786 z m -15.02041,11.94256 6.58881,-4.61365 c 3.23214,-2.26336 5.77039,-3.00502 8.32039,-2.4662 2.12631,0.44797 4.12261,1.81695 5.71635,4.2808 l 0.38454,0.59443 c 1.21392,1.87804 1.85376,3.64408 1.694,5.43363 -0.13392,1.50603 -0.41273,2.86013 -1.53345,4.30273 -0.8748,1.12542 -2.02998,2.18818 -3.45925,3.18985 l -6.84569,4.79379 z m 13.0805,9.45443 2.08166,-1.45748 c 1.47237,-1.03143 2.25396,-2.35656 2.33698,-3.97146 0.0705,-1.39091 -0.35556,-2.74501 -1.27734,-4.0623 -0.91083,-1.30084 -2.09499,-2.09498 -3.55011,-2.37535 -1.45514,-0.28038 -2.81863,0.0219 -4.09285,0.91396 l -2.12396,1.48802 z m -30.39247,5.04675 5.26212,0.18325 c -0.0243,0.69702 0.13862,1.2891 0.4887,1.77388 0.46598,0.64534 1.21391,0.98601 2.24534,1.02204 0.9586,0.0337 1.7175,-0.11356 2.26963,-0.44484 0.55292,-0.3305 0.83956,-0.77299 0.85992,-1.33296 0.0204,-0.61165 -0.24983,-1.11915 -0.81214,-1.52248 -0.30701,-0.22007 -1.25935,-0.64142 -2.89695,-1.12385 -1.59766,-0.47068 -2.73561,-0.76828 -3.37154,-1.03535 -1.13639,-0.47616 -1.99318,-1.05493 -2.56097,-1.74099 -0.65473,-0.79178 -0.9586,-1.82634 -0.91396,-3.09899 0.0713,-2.02607 0.89986,-3.52427 2.48734,-4.50088 1.42616,-0.87793 3.36685,-1.27187 5.82522,-1.18572 2.5265,0.0877 4.43039,0.64847 5.69756,1.69321 1.19121,0.98131 1.75038,2.32524 1.69165,4.01766 l -0.0188,0.52316 -5.20964,-0.18169 c 0.025,-0.71739 -0.17856,-1.28754 -0.60853,-1.71279 -0.43074,-0.42449 -1.05571,-0.65239 -1.87647,-0.68136 -0.69701,-0.0243 -1.27657,0.13548 -1.73315,0.47695 -0.45737,0.34145 -0.69545,0.75889 -0.71268,1.24602 -0.0329,0.95938 0.97895,1.712 3.04105,2.25631 2.06208,0.54352 3.27129,0.88655 3.63469,1.01734 1.29301,0.46755 2.23125,1.04161 2.82254,1.72454 0.75262,0.86775 1.10975,2.01431 1.05963,3.44438 -0.0713,2.04172 -0.95391,3.58457 -2.65181,4.6254 -1.53737,0.94294 -3.50783,1.37132 -5.91685,1.28831 -5.55111,-0.19266 -8.25226,-2.43644 -8.1019,-6.73055 z m -10.933832,-22.62656 11.528262,8.68691 -2.22342,2.9502 -7.302277,-5.50255 -2.333063,3.09665 6.736826,5.07651 -2.222635,2.95099 -6.73761,-5.0773 -2.396499,3.18046 7.302275,5.50255 -2.222636,2.9502 -11.528259,-8.68692 z m -12.57849,-14.16206 5.414053,6.22776 c 1.925032,2.21481 2.943152,4.11948 3.054362,5.71087 0.09398,1.30633 -0.411947,2.44114 -1.51935,3.40366 -1.079991,0.93902 -2.250829,1.30946 -3.513298,1.10975 -1.090956,-0.16212 -2.159982,-0.71346 -3.207864,-1.65405 l -0.07988,0.0689 c 1.065893,1.22566 1.474708,2.34951 1.231142,3.37311 -0.1582,0.67118 -0.862269,1.7034 -2.110642,3.10213 -1.249156,1.39875 -2.156066,2.58603 -2.719165,3.56108 l -3.746685,-4.30979 c 0.223987,-0.3814 0.787086,-1.06667 1.685382,-2.05503 a 260.26297,260.26297 0 0 1 1.892137,-2.09576 c 0.416647,-0.47931 0.596776,-0.96565 0.538038,-1.45748 -0.05796,-0.49184 -0.557617,-1.28048 -1.496637,-2.36048 l -0.807448,-0.92962 -5.437547,4.72643 -3.471792,-3.99417 z m 0.683708,6.41729 -3.282264,2.85309 1.599232,1.83888 c 0.584245,0.67196 1.142644,1.08938 1.676766,1.24993 0.678225,0.1958 1.343137,0.0125 1.988469,-0.54821 0.54117,-0.47069 0.757325,-1.01029 0.65238,-1.62586 -0.104945,-0.61557 -0.491047,-1.30476 -1.155176,-2.06835 z m -12.916818,-24.17645 4.497743,6.66791 c 2.206189,3.2713 2.85857,6.01944 2.275891,8.55926 -0.485565,2.11847 -1.889005,4.09049 -4.380268,5.64039 l -0.601474,0.37357 c -1.898404,1.1818 -3.675416,1.79033 -5.46261,1.59923 -1.502903,-0.16133 -2.807663,-0.66022 -4.230682,-1.80599 -1.109752,-0.89438 -2.152934,-2.06757 -3.128763,-3.51487 L 51.643,135.31767 Z m -9.680762,12.9129 1.42067,2.10673 c 1.00559,1.49037 2.316616,2.29234 3.929946,2.40512 1.390126,0.0932 2.751275,-0.30701 4.08423,-1.20687 1.316508,-0.88812 2.131788,-2.05739 2.437224,-3.50782 0.305437,-1.45043 0.02663,-2.81863 -0.843474,-4.10772 l -1.45043,-2.15059 z"
     fill="#fff22d"
     id="path10"
     style="fill:#ffae00;fill-opacity:1;stroke-width:0.78317" />
  <path
     d="m 45.244504,85.491623 c 5.667016,11.956653 13.24575,26.933207 18.89397,36.310097 M 41.321606,87.212248 C 47.106098,99.1689 54.238425,112.64334 60.799821,123.96954 M 37.415156,88.776237 c 5.783709,11.956653 13.373406,26.107743 19.934803,37.433943 M 33.565877,90.427942 c 5.783708,11.956648 13.795534,26.681808 20.356931,38.008008 M 29.891244,91.803189 c 5.783708,11.956651 14.136997,27.471241 20.699177,38.797441 M 178.69272,85.491623 c -5.6678,11.956653 -13.24576,26.933207 -18.89398,36.310097 M 182.61561,87.212248 C 176.8319,99.1689 169.69957,112.64334 163.1374,123.96954 m 23.38466,-35.193303 c -5.78371,11.956653 -13.3734,26.107743 -19.9348,37.433943 m 23.78408,-35.782238 c -5.78371,11.956648 -13.79632,26.681808 -20.35771,38.008008 m 24.03234,-36.632761 c -5.7837,11.956651 -14.13778,27.471241 -20.69917,38.797441"
     fill="none"
     stroke="#fff22d"
     stroke-width="1.74412"
     stroke-miterlimit="1"
     id="path12"
     style="stroke:#ffae00;stroke-opacity:1" />
  <path
     style="fill:#000000;stroke-width:0.0895752"
     id="path36"
     d="" />
  <g
     id="g66"
     transform="matrix(2.0848325,0,0,2.0848325,338.14476,-123.56475)"
     style="fill:#ffae00;fill-opacity:1">
    <path
       style="color:#000000;font-style:normal;font-variant:normal;font-weight:normal;font-stretch:normal;font-size:medium;line-height:normal;font-family:sans-serif;font-variant-ligatures:normal;font-variant-position:normal;font-variant-caps:normal;font-variant-numeric:normal;font-variant-alternates:normal;font-variant-east-asian:normal;font-feature-settings:normal;font-variation-settings:normal;text-indent:0;text-align:start;text-decoration:none;text-decoration-line:none;text-decoration-style:solid;text-decoration-color:#000000;letter-spacing:normal;word-spacing:normal;text-transform:none;writing-mode:lr-tb;direction:ltr;text-orientation:mixed;dominant-baseline:auto;baseline-shift:baseline;text-anchor:start;white-space:normal;shape-padding:0;shape-margin:0;inline-size:0;clip-rule:nonzero;display:inline;overflow:visible;visibility:visible;opacity:1;isolation:auto;mix-blend-mode:normal;color-interpolation:sRGB;color-interpolation-filters:linearRGB;solid-color:#000000;solid-opacity:1;vector-effect:none;fill:#ffae00;fill-opacity:1;fill-rule:nonzero;stroke:none;stroke-width:0.0895752;stroke-linecap:butt;stroke-linejoin:miter;stroke-miterlimit:4;stroke-dasharray:none;stroke-dashoffset:0;stroke-opacity:1;color-rendering:auto;image-rendering:auto;shape-rendering:auto;text-rendering:auto;enable-background:accumulate;stop-color:#000000;stop-opacity:1"
       d="m -102.79237,116.93061 c 0.0872,-0.0227 0.20808,-0.0212 0.26873,0.003 0.0606,0.0245 -0.0107,0.0431 -0.15846,0.0413 -0.1478,-0.002 -0.19742,-0.0219 -0.11027,-0.0446 z m 1.7915,0 c 0.0872,-0.0227 0.20809,-0.0212 0.26873,0.003 0.0606,0.0245 -0.0107,0.0431 -0.15846,0.0413 -0.1478,-0.002 -0.19742,-0.0219 -0.11027,-0.0446 z"
       id="path74" />
    <path
       style="color:#000000;font-style:normal;font-variant:normal;font-weight:normal;font-stretch:normal;font-size:medium;line-height:normal;font-family:sans-serif;font-variant-ligatures:normal;font-variant-position:normal;font-variant-caps:normal;font-variant-numeric:normal;font-variant-alternates:normal;font-variant-east-asian:normal;font-feature-settings:normal;font-variation-settings:normal;text-indent:0;text-align:start;text-decoration:none;text-decoration-line:none;text-decoration-style:solid;text-decoration-color:#000000;letter-spacing:normal;word-spacing:normal;text-transform:none;writing-mode:lr-tb;direction:ltr;text-orientation:mixed;dominant-baseline:auto;baseline-shift:baseline;text-anchor:start;white-space:normal;shape-padding:0;shape-margin:0;inline-size:0;clip-rule:nonzero;display:inline;overflow:visible;visibility:visible;opacity:1;isolation:auto;mix-blend-mode:normal;color-interpolation:sRGB;color-interpolation-filters:linearRGB;solid-color:#000000;solid-opacity:1;vector-effect:none;fill:#ffae00;fill-opacity:1;fill-rule:nonzero;stroke:none;stroke-width:0.0895752;stroke-linecap:butt;stroke-linejoin:miter;stroke-miterlimit:4;stroke-dasharray:none;stroke-dashoffset:0;stroke-opacity:1;color-rendering:auto;image-rendering:auto;shape-rendering:auto;text-rendering:auto;enable-background:accumulate;stop-color:#000000;stop-opacity:1"
       d="m -102.11989,116.92698 c 0.21068,-0.0189 0.53315,-0.0186 0.7166,6.3e-4 0.18345,0.0192 0.0111,0.0347 -0.38306,0.0344 -0.39413,-3.5e-4 -0.54423,-0.0161 -0.33354,-0.035 z m -1.60912,-0.0851 c 0.0647,-0.0259 0.14192,-0.0227 0.17168,0.007 0.0298,0.0298 -0.0231,0.0509 -0.11757,0.047 -0.10435,-0.004 -0.12557,-0.0255 -0.0541,-0.0541 z m -6.07432,-5.70544 c 0,-0.0186 0.0705,-0.0891 0.15675,-0.15676 0.14207,-0.11142 0.14524,-0.10825 0.0338,0.0338 -0.11702,0.14921 -0.19057,0.19666 -0.19057,0.12294 z m 1.16447,-1.0749 c 0,-0.0186 0.0705,-0.0891 0.15676,-0.15676 0.14207,-0.11142 0.14524,-0.10825 0.0338,0.0338 -0.11702,0.14921 -0.19058,0.19666 -0.19058,0.12294 z m 1.29884,-1.22024 c 0.0892,-0.0985 0.18229,-0.17915 0.20692,-0.17915 0.0246,0 -0.0282,0.0806 -0.11734,0.17915 -0.0892,0.0985 -0.18228,0.17915 -0.20692,0.17915 -0.0246,0 0.0282,-0.0806 0.11734,-0.17915 z m 14.749269,-0.44787 c 0,-0.12317 0.02033,-0.17355 0.04518,-0.11197 0.02485,0.0616 0.02485,0.16235 0,0.22394 -0.02485,0.0616 -0.04518,0.0112 -0.04518,-0.11197 z m -27.709679,-0.32992 c 0.0647,-0.0259 0.14192,-0.0227 0.17169,0.007 0.0298,0.0298 -0.0231,0.0509 -0.11757,0.047 -0.10435,-0.004 -0.12557,-0.0255 -0.0541,-0.0541 z m 14.0801,-0.24135 c 0,-0.0186 0.0705,-0.0891 0.15676,-0.15676 0.14207,-0.11142 0.14524,-0.10825 0.0338,0.0338 -0.11702,0.14921 -0.19058,0.19666 -0.19058,0.12294 z m 13.622508,-0.55589 c 0.0043,-0.10435 0.02552,-0.12557 0.05412,-0.0541 0.02588,0.0647 0.02269,0.14193 -0.0071,0.17169 -0.02977,0.0298 -0.05094,-0.0231 -0.04705,-0.11757 z m -12.458028,-0.51902 c 0,-0.0186 0.0705,-0.0891 0.15676,-0.15675 0.14207,-0.11142 0.14524,-0.10825 0.0338,0.0338 -0.11702,0.14921 -0.19058,0.19666 -0.19058,0.12293 z m 1.25406,-1.16447 c 0,-0.0186 0.0705,-0.0891 0.15675,-0.15676 0.14207,-0.11142 0.14524,-0.10825 0.0338,0.0338 -0.11702,0.14921 -0.19057,0.19666 -0.19057,0.12294 z m 1.16447,-1.07491 c 0,-0.0186 0.0705,-0.0891 0.15676,-0.15675 0.14207,-0.11142 0.14524,-0.10825 0.0338,0.0338 -0.11702,0.14921 -0.19058,0.19666 -0.19058,0.12293 z m 1.25406,-1.16447 c 0,-0.0186 0.0705,-0.0891 0.15675,-0.15676 0.14207,-0.11142 0.14524,-0.10825 0.0338,0.0338 -0.11702,0.14921 -0.19057,0.19666 -0.19057,0.12294 z m 1.16447,-1.07491 c 0,-0.0186 0.0705,-0.0891 0.15676,-0.15675 0.142072,-0.11142 0.14524,-0.10825 0.0338,0.0338 -0.11702,0.14921 -0.19058,0.19666 -0.19058,0.12293 z m -12.9884,-1.88108 c 0,-0.0186 0.0705,-0.0891 0.15676,-0.15675 0.14207,-0.11142 0.14524,-0.10825 0.0338,0.0338 -0.11702,0.14921 -0.19058,0.19666 -0.19058,0.12293 z m 19.572181,-0.2349 c 0.08917,-0.0985 0.182284,-0.179152 0.206917,-0.179152 0.02463,0 -0.02817,0.08062 -0.117342,0.179152 -0.08917,0.0985 -0.182284,0.17915 -0.206917,0.17915 -0.02463,0 0.02817,-0.0806 0.117342,-0.17915 z m -18.318131,-0.929573 c 0,-0.0186 0.0705,-0.08914 0.15676,-0.156757 0.14207,-0.11142 0.14524,-0.108252 0.0338,0.03382 -0.11702,0.14921 -0.19058,0.196661 -0.19058,0.122937 z m 1.16448,-1.074903 c 0,-0.0186 0.0705,-0.08914 0.15676,-0.156756 0.14207,-0.11142 0.14524,-0.108252 0.0338,0.03382 -0.11702,0.14921 -0.19058,0.19666 -0.19058,0.122936 z m 1.29884,-1.220233 c 0.0892,-0.09853 0.18228,-0.17915 0.20692,-0.17915 0.0246,0 -0.0282,0.08062 -0.11734,0.17915 -0.0892,0.09853 -0.18229,0.179151 -0.20692,0.179151 -0.0246,0 0.0282,-0.08062 0.11734,-0.179151 z m 1.11969,-1.019147 c 0,-0.0186 0.0705,-0.08914 0.15676,-0.156756 0.14207,-0.11142 0.14524,-0.108252 0.0338,0.03382 -0.11702,0.149209 -0.19058,0.19666 -0.19058,0.122936 z m 1.16448,-1.074902 c 0,-0.0186 0.0705,-0.08914 0.15675,-0.156757 0.14208,-0.11142 0.14524,-0.108252 0.0338,0.03382 -0.11701,0.14921 -0.19057,0.196661 -0.19057,0.122937 z m 1.25405,-1.164478 c 0,-0.0186 0.0705,-0.08914 0.15676,-0.156757 0.14207,-0.111419 0.14524,-0.108251 0.0338,0.03382 -0.11702,0.14921 -0.19058,0.196661 -0.19058,0.122937 z m 1.16448,-1.074902 c 0,-0.0186 0.0705,-0.08914 0.15675,-0.156757 0.14208,-0.11142 0.14524,-0.108252 0.0338,0.03382 -0.11701,0.14921 -0.19057,0.196661 -0.19057,0.122937 z m 1.25405,-1.164478 c 0,-0.0186 0.0705,-0.08914 0.15676,-0.156757 0.14207,-0.11142 0.14524,-0.108251 0.0338,0.03382 -0.11702,0.14921 -0.19058,0.196661 -0.19058,0.122937 z"
       id="path72" />
    <path
       style="color:#000000;font-style:normal;font-variant:normal;font-weight:normal;font-stretch:normal;font-size:medium;line-height:normal;font-family:sans-serif;font-variant-ligatures:normal;font-variant-position:normal;font-variant-caps:normal;font-variant-numeric:normal;font-variant-alternates:normal;font-variant-east-asian:normal;font-feature-settings:normal;font-variation-settings:normal;text-indent:0;text-align:start;text-decoration:none;text-decoration-line:none;text-decoration-style:solid;text-decoration-color:#000000;letter-spacing:normal;word-spacing:normal;text-transform:none;writing-mode:lr-tb;direction:ltr;text-orientation:mixed;dominant-baseline:auto;baseline-shift:baseline;text-anchor:start;white-space:normal;shape-padding:0;shape-margin:0;inline-size:0;clip-rule:nonzero;display:inline;overflow:visible;visibility:visible;opacity:1;isolation:auto;mix-blend-mode:normal;color-interpolation:sRGB;color-interpolation-filters:linearRGB;solid-color:#000000;solid-opacity:1;vector-effect:none;fill:#ffae00;fill-opacity:1;fill-rule:nonzero;stroke:none;stroke-width:0.0895752;stroke-linecap:butt;stroke-linejoin:miter;stroke-miterlimit:4;stroke-dasharray:none;stroke-dashoffset:0;stroke-opacity:1;color-rendering:auto;image-rendering:auto;shape-rendering:auto;text-rendering:auto;enable-background:accumulate;stop-color:#000000;stop-opacity:1"
       d="m -110.01804,111.2748 c -0.0254,-0.041 0.0108,-0.0746 0.0803,-0.0746 0.0696,0 0.10573,0.0336 0.0804,0.0746 -0.0254,0.0411 -0.0615,0.0747 -0.0804,0.0747 -0.0188,0 -0.055,-0.0336 -0.0803,-0.0747 z m 0.84173,-0.66998 c 0,-0.0154 0.13101,-0.14642 0.29112,-0.29112 l 0.29112,-0.26309 -0.26309,0.29112 c -0.24524,0.27136 -0.31915,0.33229 -0.31915,0.26309 z m 1.16448,-1.0749 c 0,-0.0154 0.131,-0.14642 0.29112,-0.29112 l 0.29112,-0.26309 -0.26309,0.29112 c -0.24524,0.27136 -0.31915,0.33229 -0.31915,0.26309 z m 1.25405,-1.16448 c 0,-0.0154 0.13101,-0.14642 0.29112,-0.29112 l 0.29112,-0.26309 -0.26309,0.29112 c -0.24524,0.27136 -0.31915,0.33229 -0.31915,0.26309 z m 1.16448,-1.0749 c 0,-0.0154 0.131,-0.14642 0.29112,-0.29112 l 0.29112,-0.26309 -0.26309,0.29112 c -0.24524,0.27136 -0.31915,0.33229 -0.31915,0.26309 z m 1.25405,-1.16448 c 0,-0.0154 0.13101,-0.14642 0.29112,-0.29112 l 0.29112,-0.26309 -0.26309,0.29112 c -0.24523,0.27136 -0.31915,0.33229 -0.31915,0.26309 z m 1.16448,-1.0749 c 0,-0.0154 0.13101,-0.14642 0.29112,-0.29112 l 0.29112,-0.26309 -0.26309,0.29112 c -0.24524,0.27136 -0.31915,0.33229 -0.31915,0.26309 z m 1.4332,-1.36039 c 0.16713,-0.17243 0.32403,-0.31351 0.34866,-0.31351 0.0246,0 -0.0919,0.14108 -0.25908,0.31351 -0.16713,0.17243 -0.32402,0.31351 -0.34866,0.31351 -0.0246,0 0.092,-0.14108 0.25908,-0.31351 z m 7.385745,-0.15676 -0.354087,-0.38069 0.380695,0.35408 c 0.354042,0.3293 0.421857,0.40731 0.354086,0.40731 -0.01463,0 -0.185947,-0.17132 -0.380694,-0.3807 z m -6.400415,-0.72223 c 0,-0.0154 0.13101,-0.14642 0.29112,-0.29112 l 0.29112,-0.26309 -0.26309,0.29112 c -0.24524,0.27136 -0.31915,0.33229 -0.31915,0.26309 z m 1.16448,-1.07491 c 0,-0.0154 0.131004,-0.14642 0.291119,-0.29112 l 0.29112,-0.26309 -0.263091,0.29112 c -0.245237,0.27137 -0.319148,0.3323 -0.319148,0.26309 z m -14.36877,-0.58597 c -0.026,-0.0421 0.0623,-0.17311 0.19625,-0.29112 l 0.24358,-0.21457 -0.20237,0.23059 c -0.1113,0.12682 -0.17512,0.25782 -0.14183,0.29112 0.0333,0.0333 0.0361,0.0605 0.006,0.0605 -0.0299,0 -0.0757,-0.0345 -0.10174,-0.0766 z m 1.29079,-1.311865 c 0.16713,-0.172432 0.32402,-0.313513 0.34866,-0.313513 0.0246,0 -0.092,0.141081 -0.25908,0.313513 -0.16713,0.172435 -0.32403,0.313515 -0.34866,0.313515 -0.0246,0 0.0919,-0.14108 0.25908,-0.313515 z m 0.98533,-0.878993 c 0,-0.01542 0.131,-0.14642 0.29112,-0.291119 l 0.29112,-0.263091 -0.26309,0.29112 c -0.24524,0.271364 -0.31915,0.332292 -0.31915,0.26309 z m 1.16448,-1.074902 c 0,-0.01542 0.131,-0.14642 0.29111,-0.29112 l 0.29112,-0.26309 -0.26309,0.291119 c -0.24523,0.271365 -0.31914,0.332293 -0.31914,0.263091 z m 1.25405,-1.164478 c 0,-0.01542 0.131,-0.14642 0.29112,-0.291119 l 0.29112,-0.263091 -0.26309,0.29112 c -0.24524,0.271364 -0.31915,0.332292 -0.31915,0.26309 z m 1.16448,-1.074902 c 0,-0.01542 0.131,-0.14642 0.29111,-0.29112 l 0.29112,-0.26309 -0.26309,0.291119 c -0.24523,0.271365 -0.31914,0.332293 -0.31914,0.263091 z m 1.4332,-1.360387 c 0.16713,-0.172432 0.32402,-0.313513 0.34866,-0.313513 0.0246,0 -0.092,0.141081 -0.25909,0.313513 -0.16712,0.172432 -0.32402,0.313513 -0.34865,0.313513 -0.0246,0 0.0919,-0.141081 0.25908,-0.313513 z m 0.98533,-0.878993 c 0,-0.01542 0.131,-0.14642 0.29112,-0.29112 l 0.29111,-0.26309 -0.26309,0.291119 c -0.24523,0.271365 -0.31914,0.332293 -0.31914,0.263091 z m 1.16447,-1.074903 c 0,-0.01542 0.13101,-0.14642 0.29112,-0.291119 l 0.29112,-0.263091 -0.26309,0.29112 c -0.24524,0.271364 -0.31915,0.332292 -0.31915,0.26309 z m 1.40832,-1.320114 c 0.10949,-0.115209 0.21639,-0.191555 0.23756,-0.169659 0.0212,0.0219 -0.0684,0.116158 -0.19905,0.209471 l -0.23756,0.16966 z m 9.425461,-0.510542 -0.308691,-0.335907 0.335907,0.308691 c 0.312655,0.287322 0.377093,0.363123 0.308691,0.363123 -0.01497,0 -0.166127,-0.151159 -0.335907,-0.335907 z"
       id="path70" />
    <path
       style="color:#000000;font-style:normal;font-variant:normal;font-weight:normal;font-stretch:normal;font-size:medium;line-height:normal;font-family:sans-serif;font-variant-ligatures:normal;font-variant-position:normal;font-variant-caps:normal;font-variant-numeric:normal;font-variant-alternates:normal;font-variant-east-asian:normal;font-feature-settings:normal;font-variation-settings:normal;text-indent:0;text-align:start;text-decoration:none;text-decoration-line:none;text-decoration-style:solid;text-decoration-color:#000000;letter-spacing:normal;word-spacing:normal;text-transform:none;writing-mode:lr-tb;direction:ltr;text-orientation:mixed;dominant-baseline:auto;baseline-shift:baseline;text-anchor:start;white-space:normal;shape-padding:0;shape-margin:0;inline-size:0;clip-rule:nonzero;display:inline;overflow:visible;visibility:visible;opacity:1;isolation:auto;mix-blend-mode:normal;color-interpolation:sRGB;color-interpolation-filters:linearRGB;solid-color:#000000;solid-opacity:1;vector-effect:none;fill:#ffae00;fill-opacity:1;fill-rule:nonzero;stroke:none;stroke-width:0.0895752;stroke-linecap:butt;stroke-linejoin:miter;stroke-miterlimit:4;stroke-dasharray:none;stroke-dashoffset:0;stroke-opacity:1;color-rendering:auto;image-rendering:auto;shape-rendering:auto;text-rendering:auto;enable-background:accumulate;stop-color:#000000;stop-opacity:1"
       d="m -110.45835,122.27882 c -0.92682,-0.23672 -1.70428,-0.44956 -1.7277,-0.47298 -0.0234,-0.0234 0.30157,-1.41739 0.72219,-3.0977 0.42063,-1.68033 0.76477,-3.08998 0.76477,-3.13257 0,-0.0704 -2.7703,-0.82709 -3.01551,-0.8237 -0.0625,8.9e-4 -0.4084,1.2431 -0.86202,3.09537 -0.41673,1.70166 -0.77741,3.11365 -0.80152,3.13776 -0.0241,0.0241 -0.88911,-0.16653 -1.92224,-0.42363 l -1.87842,-0.46745 0.79533,-3.17753 c 0.57529,-2.29838 0.76631,-3.19547 0.69041,-3.24238 -0.0577,-0.0357 -1.76262,-0.47836 -3.78868,-0.98375 -2.02606,-0.5054 -3.71975,-0.95108 -3.76375,-0.99041 -0.0451,-0.0404 0.32207,-1.00053 0.84293,-2.204 0.50762,-1.17287 0.92759,-2.14025 0.93327,-2.14972 0.006,-0.009 0.7147,0.16175 1.5756,0.38051 1.1324,0.28775 1.66017,0.38289 1.90842,0.34404 0.39125,-0.0612 0.8858,-0.45332 1.0329,-0.81888 0.21425,-0.53246 4.40155,-17.517302 4.40155,-17.85391 0,-0.692457 -0.42841,-1.362252 -1.08852,-1.70184 -0.17992,-0.09256 -1.00625,-0.336337 -1.83629,-0.541729 -0.83004,-0.20539 -1.54129,-0.401965 -1.58056,-0.436832 -0.0635,-0.05639 0.84444,-3.89447 0.94511,-3.995139 0.0223,-0.02232 1.76378,0.387377 3.86989,0.910447 2.10611,0.523069 3.8599,0.916895 3.89731,0.875169 0.0374,-0.04173 0.40158,-1.426212 0.80927,-3.076635 0.40769,-1.650423 0.77309,-3.036137 0.812,-3.079364 0.0624,-0.06927 3.46024,0.712344 3.67574,0.845533 0.0613,0.03787 -1.09575,5.070676 -1.39905,6.085565 -0.032,0.106971 0.27064,0.205841 1.48435,0.484971 0.90531,0.208205 1.55457,0.317351 1.59854,0.268726 0.0407,-0.04503 0.40696,-1.422152 0.81386,-3.060258 0.40691,-1.638107 0.77671,-2.978376 0.82178,-2.978376 0.0894,0 3.689001,0.896487 3.718645,0.92613 0.01,0.01 -0.337978,1.441062 -0.773286,3.180137 -0.536049,2.141541 -0.758281,3.173624 -0.68863,3.198113 1.624585,0.571213 3.323905,1.372891 4.386363,2.069326 0.353711,0.231856 1.009965,0.788829 1.458342,1.237717 0.683371,0.684153 0.882906,0.953254 1.233645,1.663753 0.657961,1.332843 0.806445,2.412029 0.549683,3.995129 -0.437099,2.694987 -1.789773,4.447257 -4.057934,5.256687 l -0.83235,0.29704 0.787562,0.47728 c 1.094362,0.66322 2.286499,1.874 2.736944,2.77974 0.470275,0.94562 0.631235,1.65735 0.627991,2.77684 -0.0076,2.63601 -1.364111,5.75038 -3.144053,7.21856 -1.056073,0.8711 -2.388171,1.44884 -3.91208,1.69669 -1.654522,0.2691 -4.924352,0.10029 -6.999042,-0.36132 -0.18178,-0.0404 -0.23093,0.11621 -0.98405,3.13649 -0.71876,2.88244 -0.80956,3.1783 -0.97315,3.17092 -0.0992,-0.004 -0.93874,-0.20183 -1.86556,-0.43854 z m 6.07351,-16.07858 c 3.03482,-2.80743 5.480432,-5.1169 5.434685,-5.13215 -0.04575,-0.0152 -1.361015,-0.30477 -2.922805,-0.64338 -1.5618,-0.33861 -2.85168,-0.62906 -2.8664,-0.64545 -0.0147,-0.01639 0.40585,-2.025087 0.93461,-4.463772 0.52876,-2.438685 0.94928,-4.448763 0.9345,-4.466838 -0.0148,-0.01808 -1.38931,1.228289 -3.0545,2.769701 -1.66519,1.541411 -4.16453,3.853605 -5.55408,5.138208 -1.38956,1.284601 -2.49805,2.360111 -2.46332,2.390021 0.0347,0.0299 1.35875,0.33041 2.94226,0.66778 1.7359,0.36984 2.86629,0.65075 2.84682,0.70746 -0.0178,0.0517 -0.43855,1.98856 -0.93508,4.30408 -0.49654,2.31552 -0.92527,4.28535 -0.95275,4.37739 -0.0288,0.0966 -0.0102,0.15341 0.0441,0.13436 0.0517,-0.0181 2.57712,-2.32998 5.61194,-5.13741 z"
       id="path68" />
  </g>
</svg>
