<?xml version="1.0" encoding="UTF-8" standalone="no"?>
<svg
   xmlns:dc="http://purl.org/dc/elements/1.1/"
   xmlns:cc="http://creativecommons.org/ns#"
   xmlns:rdf="http://www.w3.org/1999/02/22-rdf-syntax-ns#"
   xmlns:svg="http://www.w3.org/2000/svg"
   xmlns="http://www.w3.org/2000/svg"
   xmlns:sodipodi="http://sodipodi.sourceforge.net/DTD/sodipodi-0.dtd"
   xmlns:inkscape="http://www.inkscape.org/namespaces/inkscape"
   id="Layer_2"
   data-name="Layer 2"
   viewBox="0 0 1170.12 380.62"
   version="1.1"
   sodipodi:docname="xbt-accepted-here.svg"
   inkscape:version="1.0.2 (e86c870879, 2021-01-15)">
  <metadata
     id="metadata41">
    <rdf:RDF>
      <cc:Work
         rdf:about="">
        <dc:format>image/svg+xml</dc:format>
        <dc:type
           rdf:resource="http://purl.org/dc/dcmitype/StillImage" />
        <dc:title>Bitcoin Lightning accepted here</dc:title>
        <cc:license
           rdf:resource="https://en.wikipedia.org/wiki/MIT_License#License_terms" />
        <dc:creator>
          <cc:Agent>
            <dc:title>lncm</dc:title>
          </cc:Agent>
        </dc:creator>
        <dc:rights>
          <cc:Agent>
            <dc:title>MIT/Expat License</dc:title>
          </cc:Agent>
        </dc:rights>
        <dc:source>https://github.com/lncm/ideas</dc:source>
        <dc:language>English</dc:language>
        <dc:contributor>
          <cc:Agent>
            <dc:title>vv01f</dc:title>
          </cc:Agent>
        </dc:contributor>
        <dc:date>2019-04-24</dc:date>
      </cc:Work>
    </rdf:RDF>
  </metadata>
  <sodipodi:namedview
     pagecolor="#ffffff"
     bordercolor="#666666"
     borderopacity="1"
     objecttolerance="10"
     gridtolerance="10"
     guidetolerance="10"
     inkscape:pageopacity="0"
     inkscape:pageshadow="2"
     inkscape:window-width="1366"
     inkscape:window-height="694"
     id="namedview39"
     showgrid="false"
     inkscape:zoom="0.94349298"
     inkscape:cx="731.11204"
     inkscape:cy="190.31"
     inkscape:window-x="0"
     inkscape:window-y="0"
     inkscape:window-maximized="1"
     inkscape:current-layer="layer3" />
  <defs
     id="defs4">
    <style
       id="style2">.cls-1{fill:#ff9000;}.cls-2{fill:#fff;}.cls-3{fill:#ffba00;}.cls-4{font-size:260px;letter-spacing:-0.03em;}.cls-4,.cls-7{fill:#4e4e4e;font-family:Ubuntu-BoldItalic, Ubuntu;font-style:italic;}.cls-4,.cls-8,.cls-9{font-weight:700;}.cls-5{letter-spacing:-0.04em;}.cls-6{letter-spacing:-0.05em;}.cls-7{font-size:57px;}.cls-12,.cls-9{letter-spacing:0.01em;}.cls-10,.cls-11,.cls-12,.cls-13,.cls-14{font-family:Ubuntu-LightItalic, Ubuntu;}.cls-10{letter-spacing:-0.02em;}.cls-11{letter-spacing:-0.02em;}.cls-13{letter-spacing:-0.01em;}.cls-14{letter-spacing:0.01em;}</style>
  </defs>
  <title
     id="title6">Bitcoin Lightning accepted here</title>
  <g
     inkscape:groupmode="layer"
     id="layer3"
     inkscape:label="local-LEJ"
     style="display:none">
    <text
       xml:space="preserve"
       style="font-style:normal;font-weight:normal;font-size:34.6667px;line-height:1.25;font-family:sans-serif;letter-spacing:0.5px;display:inline;fill:#000000;fill-opacity:1;stroke:none"
       x="1151.5825"
       y="359.59622"
       id="text146"><tspan
         sodipodi:role="line"
         id="tspan144"
         x="1152.0825"
         y="359.59622"
         style="font-style:italic;font-variant:normal;font-weight:normal;font-stretch:normal;font-size:34.6667px;font-family:Ubuntu-LightItalic, Ubuntu;-inkscape-font-specification:'Ubuntu-LightItalic, Ubuntu Italic';text-align:end;text-anchor:end;fill:#666666">die lokale Bitcoin-Community: <tspan
   style="fill:#ff6600"
   id="tspan142">bitcoin-leipzig.de</tspan></tspan></text>
  </g>
  <g
     inkscape:groupmode="layer"
     id="layer1"
     inkscape:label="local-DRE"
     style="display:inline">
    <text
       xml:space="preserve"
       style="font-style:normal;font-weight:normal;font-size:34.6667px;line-height:1.25;font-family:sans-serif;letter-spacing:0.08px;fill:#000000;fill-opacity:1;stroke:none"
       x="1151.5825"
       y="359.59622"
       id="text45"><tspan
         sodipodi:role="line"
         id="tspan43"
         x="1151.6625"
         y="359.59622"
         style="font-style:italic;font-variant:normal;font-weight:normal;font-stretch:normal;font-size:34.6667px;font-family:Ubuntu-LightItalic, Ubuntu;-inkscape-font-specification:'Ubuntu-LightItalic, Ubuntu Italic';text-align:end;text-anchor:end;fill:#666666">die lokale Bitcoin-Community: <tspan
   style="fill:#ff6600"
   id="tspan47">bitcoin-dresden.de</tspan></tspan></text>
  </g>
  <g
     inkscape:groupmode="layer"
     id="layer2"
     inkscape:label="original"
     style="display:inline">
    <path
       class="cls-1"
       d="M 348.74,177.37 A 170,170 0 1 0 309.08,287.45 L 261.77,274.31 Z"
       id="path8" />
    <path
       class="cls-2"
       d="m 253.72,154.09 c 3.39,-22.62 -13.84,-34.78 -37.39,-42.89 l 7.67,-30.64 -18.65,-4.65 -7.44,29.83 c -4.9,-1.22 -9.93,-2.37 -14.94,-3.51 l 7.49,-30 -18.64,-4.64 -7.64,30.63 c -4.06,-0.93 -8.05,-1.84 -11.92,-2.8 v -0.1 l -25.73,-6.42 -5,19.92 c 0,0 13.84,3.17 13.55,3.37 7.59,1.81 8.92,6.81 8.73,10.81 l -8.7,34.91 a 14.91,14.91 0 0 1 1.94,0.62 l -2,-0.49 -12.2,48.9 c -0.93,2.29 -3.27,5.74 -8.55,4.43 0.19,0.27 -13.56,-3.38 -13.56,-3.38 l -9.26,21.35 24.28,6 c 4.51,1.13 8.94,2.31 13.29,3.43 l -7.72,31 18.67,4.69 7.64,-30.66 c 5.09,1.38 10,2.65 14.86,3.85 l -7.61,30.52 18.65,4.65 7.72,-30.93 c 31.8,6 55.72,3.59 65.79,-25.18 8.11,-23.16 -0.41,-36.52 -17.14,-45.23 12.18,-2.81 21.36,-10.83 23.81,-27.39 z m -42.61,59.76 c -5.77,23.16 -44.77,10.64 -57.41,7.5 l 10.24,-41.06 c 12.65,3.16 53.19,9.41 47.17,33.56 z m 5.77,-60.09 c -5.26,21.07 -37.72,10.36 -48.25,7.74 l 9.29,-37.24 c 10.52,2.62 44.43,7.52 38.96,29.5 z"
       id="path10" />
    <polygon
       class="cls-3"
       points="333.77,284.31 295.77,367.31 400.77,261.31 337.77,244.31 375.77,162.31 279.77,269.31 "
       id="polygon12" />
    <text
       class="cls-4"
       transform="translate(382.77,233.31)"
       id="text20">bi<tspan
   class="cls-5"
   x="208.52"
   y="0"
   id="tspan14">t</tspan><tspan
   class="cls-6"
   x="305.48999"
   y="0"
   id="tspan16">c</tspan><tspan
   x="416.51001"
   y="0"
   id="tspan18">oin</tspan></text>
    <text
       class="cls-7"
       id="text36"
       x="408.5903"
       y="316.31"><tspan
         class="cls-8"
         id="tspan22">L</tspan><tspan
         class="cls-9"
         x="440.7403"
         y="316.31"
         id="tspan24">IGHTNING</tspan><tspan
         class="cls-10"
         x="731.66034"
         y="316.31"
         id="tspan26">A</tspan><tspan
         class="cls-11"
         x="765.86035"
         y="316.31"
         id="tspan28">C</tspan><tspan
         class="cls-12"
         x="799.49036"
         y="316.31"
         id="tspan30">CE</tspan><tspan
         class="cls-13"
         x="865.04034"
         y="316.31"
         id="tspan32">P</tspan><tspan
         class="cls-14"
         x="896.73035"
         y="316.31"
         id="tspan34">TED HERE</tspan></text>
  </g>
</svg>
